<?xml version="1.0" encoding="UTF-8"?>
<svg id="old_logo" data-name="old logo" xmlns="http://www.w3.org/2000/svg" viewBox="0 0 150 150">
  <defs>
    <style>
      .cls-1 {
        fill: #000;
      }

      .cls-1, .cls-2 {
        stroke-width: 0px;
      }

      .cls-2 {
        fill: #fff;
      }
    </style>
  </defs>
  <g id="white-background">
    <rect id="top-right-square" class="cls-2" x="74.52" y="26.37" width="49.25" height="49.59"/>
    <path id="face" class="cls-2" d="M74.52,26.52v98.5c-18.88.28-50.01-11.48-49.19-45.85,0-17.29-.13-35.31,0-52.65h49.19Z"/>
  </g>
  <g id="bottom-stack">
    <path id="stack1" class="cls-1" d="M74.45,76.01v49.1c19.03.29,50.35-14.43,49.52-49.34"/>
  </g>
  <g id="top-stack">
    <polygon id="stack1-2" data-name="stack1" class="cls-1" points="25.28 26.37 25.28 73.81 25.28 76.01 74.45 76.01 74.45 26.37 71.17 26.37 25.28 26.37"/>
  </g>
  <path id="left-eye" class="cls-2" d="M40.11,56.88c.18.09,23.39.09,24.2.09-.03-16.89-24.29-16.97-24.2-.09Z"/>
  <path id="right-eye" class="cls-1" d="M84.75,44.29c.18-.09,23.39-.09,24.2-.09-.03,16.89-24.29,16.97-24.2.09"/>
  <path id="right-mouth" class="cls-2" d="M104.3,103.98c0,.09-29.85.09-29.85.09v-20.85c11.64-.88,28.55,8.8,29.85,20.76Z"/>
  <path id="left-mouth" class="cls-1" d="M44.23,83.29c0-.1,30.22-.1,30.22-.1v20.98c-11.79.89-28.91-8.85-30.22-20.88Z"/>
</svg>