<?xml version="1.0" encoding="UTF-8"?>
<svg id="Layer_2" data-name="Layer 2" xmlns="http://www.w3.org/2000/svg" viewBox="0 0 1159.5 300">
  <g id="Layer_4" data-name="Layer 4">
    <g id="m">
      <path id="border" d="M1155.5,193.5c-3.2-7.5-3,94.2-3.2,97.2-.3,6.2-8.2,3.4-19.7,3.4-76.8-2.1-170.8,0-247.7-.8-7.2-1.8-25.2,4.7-26.3-3.9-2.5-20.5-.8-35.8-1.1-53.8-1.1-57.5-.4-115-1-172.6,1.9-17-1.4-37.2.8-53.4.3-2.2,2.3-3.9,4.5-3.8,59,3,129,1.3,188-.3,28.2.4,66.8,2.4,95.4,1.5,3,0,5.6-.2,5.9,2.8.2,2.6.8,11.2,1.4,18.1,0,.9,1,.9,1,0,.1-8.4.7-20,.3-22.1-.2-1.1-1.1-2-2.2-2.1-35-4.9-82.4-.5-119.5-1.6-43.4-.8-94.6-1.4-138.1-1.1-6.3.7-43.4-4.1-43.8,3.3-3.7,57.3,2,114.7-.4,171,2.9,23,1.1,48.3,1.6,72.2-1.6,14.7,1.5,30,.6,44.5-.7,6.5,2.2,7.7,7.5,7.4,53.8,0,114.8,1.4,168.6.4,26,.7,62.6-1,88.3.2,11.8-.1,23.1-.2,34.9,0,10.2,0,8.5-9.5,7.5-17.4l-3.2-88.9Z" style="fill: #c93849; stroke-width: 0px;"/>
      <path id="full" d="M1144.1,42.3c-1.4,1.1-5.1,8.1-6.1,9.9-2.6,60.6-4.4,148.9-3,213.3,5.5,7.3,8.7,12.5,5.1,13.5-6.5,1.8-22.3,1.6-26.7,1.1-5.8-.6-3.5-5.3-1.3-8.3,7.5-15.4,3.6-42.8,4.3-60.4.5-56.6,3.4-108.8,1.1-160.6-.2,0-.2,0-.4,0-33.1,73.1-69.4,147.3-100.5,221.1-2.8,5.6-8.3-8.6-10.3-13-13.6-34.3-30.4-67.2-45-101-16.5-34-35.9-73.2-58.7-108.6-.6-1-2-.9-2.6.1-1.3,2.6-3,7.3-3.1,11.2-.9,67.5-4.4,135.8-3.4,203.2,2.4,4.3,7,6.7,9.7,10.8,3,6.9-7,5.4-11.1,5.7-23.2,1.9-15.5-4.7-7.9-15.6.1-73,4.1-146.2,2.6-219.1-4.3-4.3-6.9-6.3-2.8-9.1,2.2-1.2,45.8-1.2,47.7-.6,5.6,1.8,1.9,8.4-.5,17.7,12.9,28.7,44.6,96.4,49.5,108.3,9.1,20.2,28.9,62.2,37.1,82.8,27.9-59.7,59.8-141.7,89.6-196.6-4.3-5-6.1-12.8,2.8-12.3,9.6-.8,17.6-.8,28.7-.1,4.4,0,6.9,4.5,5.1,6.6Z" style="fill: #ca0; stroke-width: 0px;"/>
      <path id="bg" d="M862.4,66.6c1.9-16.3-1.4-35.6.8-51.2.3-2.1,2.2-3.7,4.4-3.6,56.6,2.9,123.9,1.3,180.4-.3,27,.4,64.9,2.3,92.3,1.4,2.9,0,5.4-.2,5.6,2.7,2.4,30.2-2.2,66.7,0,98,1.3,49.1.7,72.1.8,116.4,0,19.2,1.9,35.5,0,54.6-.3,5.9-11.2,2.3-18.6,3.5-73.6-2-164.9,0-238.6-.8-6.9-1.8-24.2,4.5-25.2-3.8-2.4-19.7-.8-34.4-1-51.5-1.1-55.1-.4-110.2-.9-165.4Z" style="fill: #270d40; stroke-width: 0px;"/>
      <g id="leaves2" style="opacity: .6;">
        <path d="M1012.3,193.7c-5.5.8,0,15.6-.2,20.2.2,1.9-1,7.2,1.8,7.2,1.4-.2,2-1.5,2-3,0-8.2,1.4-14.4,1.7-18.2.3-4.1-.6-7.2-5.3-6.2Z" style="fill: #1a806c; stroke-width: 0px;"/>
        <path d="M1037.5,170.6c.3-4.1-4.6-6.1-8.1-6.1-11.1,2-12.4,16.1-12,25.3,0,0,0,0,0,0,0,.6.5,1.2,1.2,1.4,2.9.5,1.2-3.6,1.7-5.4,1-5.5,4.3-13,11.2-12.7,2.4-.2,5.8,1,6-2.5Z" style="fill: #1a806c; stroke-width: 0px;"/>
        <path d="M1010.8,188.9s0,0,0,0c0-.5-1.1-13.5-4.5-18.3-2.1-2.8-8-5.3-12.4-3-2.8,1.4-5.8,8.3-.5,8.6,9.8-3.7,11.5,5,14.8,11.6,0,1.5,1.8,3.1,2.5,1.1Z" style="fill: #1a806c; stroke-width: 0px;"/>
        <path d="M1017.7,52.5c-1-1.7-1-3.7-1.9-5.4-1.7-3.5-7.3-2.6-6.1,1.7,5.2,6,7.5,11.6,7.1,19.7.6,15.7-8,12.8-.7,21.6h0c4.3,5.5,7.8-12.7,8.9-15.3,2.9-10,2.3-20.6,1.1-30.8-.5-3.6-3-12.6-7.6-7.1-2.9,4,1.8,8.4,1.8,12.6s-2.2,3.9-2.6,3Z" style="fill: #1a806c; stroke-width: 0px;"/>
        <path d="M1005.6,111.8c1.1-1.8,2.5-3.5,3-5.5.2-1.1,0-2.6-.4-3.6-.6-1-2.9-5.2-4.7-2-15.1,27.9-45.7,41.5-70.3,59.7-15,12.6-25.3,25.8-32,44.4-.5,1.2-2,6.3-.9,7.4,1.2,1.2,1.9,1.3,3.2,1.6,2.6.5,3.6-1.9,4.1-4,2-6.4,3.7-13.1,7.3-18.8,8-10.8,15.6-22.7,27.5-29.7,21.4-15.4,48.1-26.9,63-49.5Z" style="fill: #1a806c; stroke-width: 0px;"/>
        <path d="M1103.8,224.5c.3-.8,3.7-13.8-2.5-18.6,1.2-5.2-2-11-6.5-13.6-1.5-.9-4.7-1.4-7-4.8-1.1-1.6-.2-3.6-1.1-5.1-2.1-1.6-2.7,1.9-3.3,3.2-1.7,10.2,11.2,17,13.4,26.6-5.6-6.3-13.1-11.2-21.4-13-6.8-1.3-14.1-.7-20.8-.4-1.8,2.9,6.5,5,8.5,5.6-4.1,2.1-6.8,5.8-9.8,11.2-1.7,3,2.8,5.6,4.6,2.6,4.5-10.7,13.2-14.2,24.2-10.7,11.1,5.7,18,16.3,19.9,28.8,5,31.5-27.3,51.8-54,38.5-7.1-4.2-11.7-12-14.5-19.6-.3-1-.6-2.1-.5-3.1-1.1-3.5-4.8-1.2-3.8,1.9,1.9,17.7,19.1,27.8,35.7,28.1,17.4.3,35.7-11.6,40.1-28.3,1.6-9.6,2.1-19.9-1.1-29.3Z" style="fill: #1a806c; stroke-width: 0px;"/>
        <path d="M1074.5,211.9c-1-1.7-1.8-.7-2.8.9-3.2,5.6-11.7,4.3-14.1,10-1.5-.8-3.7-.3-4.3,1.5-4-.7-9.2,1.9-11.4,5.6-.9,1.6,0,3.6,1.8,4,3.3.7,8.4,0,10.7-.8-1.4,2.7-7.7,3-10.5,3.8-26.3,10,13.5,16.4,15.7.7,2.5,3.9-8.1,19.2-11.4,22.1-6.5,7,13.1,7.7,16.2-2.1,1.3,6.6,7.2,10.9,12.6,14.3,3.4.6,1.4-5,1.5-6.9-.5-3.6-.3-7.3-1.3-10.9,5.6,2.1,20.2-7.1,20.6-12.7-2.6-1.7-3.6,6.5-12.3,0-4.6-2.1-10.5-.6-15.3-1.3-.8-.1-3-.3-4.7-2-1-1-2.1-2.1.8-2.4,3.1-.3,6.6,1.4,8.8,1.9,7.6,1.4,17.4-1.2,19.6-9.5.7-1.5-.2-4.2-2.2-2.9-8.1,0-19.7,3.4-28.5,4.1,5.9-4.3,14.7-10.1,10.6-17.4Z" style="fill: #1a806c; stroke-width: 0px;"/>
        <path d="M992.8,23.8c-13.5,3.8-23.6,1.3-35.7-4.8-17.1-8.6-38.3.7-41,1.2-6.1,2.1-15.7-5.3-19.2,2.7-4.2-2.5-9.2-3.8-14-3.5-2.9.7-15.7.8-13.8,5.5.4.8,1.4,1,2,.5,2.2-1.8,4.9-2,7.5-1,13.3,3.4,19.7,7.3,27.5,7.1,5-.2,10-1.1,19.6-8.4,9.7-6.8,20.9-2,30.7,2.1,13.6,5.7,22.1,4.3,26.8,3.2-6.5,3.3-9.3,8.8-12.2,15.1-1,2-3,3.1-3.9,5.1-.4,1.7,1.8,3.1,3.2,1.9,0,0,0,0,0,0,6.1-3.4,7.5-11.3,12.5-15.7,8.5-8.6,24.2-10.6,31.1.3,1,1.5,2.5,1,2.6-.4-2.6-9.3-14.9-14-23.8-11Z" style="fill: #1a806c; stroke-width: 0px;"/>
        <path d="M950.1,42.9c-3.1-6.8-4.5-15.8-13-18.6-1.3-.4-5.3-1.7-5.3.8.3,1.6,2.5,1.2,3.7,1.8,8.7,9.1-3.1,26.7,21.9,28.6-4.2,3.9-9.1,1.2-13.9.4-2.5-.4-5.5,1.4-4,4.2,1.9,3,9,4.9,12.4,4.5-7.4,13.2-5.8,20.1,7.2,7.1,1.1,5.2,4.4,11.7,9.7,13.1,2.7-3,1.7-7.8.6-11.3,8.2,9.3,20.5,7.8,25.4,20.6,1.3,1.4,2.3-.7,2.3-1.8,1.6-15.5-14.7-23.4-25-31.7,6,.6,9.7,5.9,14.6,8.6.6,0,1.1-.5,1.1-1,3.9-6.9.1-15.2-7.7-16.8-4.2-.8-8.1,1.2-12,2.3,0-1.8-2.2-3.3-4-3.3,2.3-8.5.7-17.4-7.3-20.8-4.3-1.8-2.5,17.5,1.2,20.9-4.8.3-6.4-3.9-7.9-7.7Z" style="fill: #1a806c; stroke-width: 0px;"/>
        <path d="M1117.6,16.6c-12.4-5.3-25.6,5.4-29.1,17.1-1.4,5.3-.6,10.9-2.1,16.1-1.9,5.3-7.5,12.6-13.7,8.9-.7-1.2-2.8-.7-2.6.8.4,2.3,3.5,3.3,5.5,3.3,17.8.4,13.4-23.2,22.4-29,4.7-3,15.7-5.3,11.6-13,6.6-2.5,12.4,2.8,9.3,6-3.3-4.8-11.1,3.6-3.4,6,10.5,3.3,11.5-12.1,2.2-16.2Z" style="fill: #1a806c; stroke-width: 0px;"/>
      </g>
      <g id="leaves1" style="opacity: .7;">
        <path d="M1011,133.2c.6,1.9.4,4.4,2.1,5.7,1.8.9,2.8-.9,3.1-2.4,1.4-6.1,2.5-12.3,2.4-18.6-.3-3.1-.5-6.7-2.2-9.3-2-1.9-9.2,10.1-5.4,24.6Z" style="fill: #5b955d; stroke-width: 0px;"/>
        <path d="M993.8,140.1c2.1-3.3,7.5-3,8.2,1.3.5,6,3.1,12.3,10,12.3-.2,11.8-.3,23.7.4,35.5.3,1.8,2.9,1.6,2.9-.2,0-1.1-.9-25.3,1.7-35.9,7.4-3.4,5.7-16.5,14.5-18.5,4-1.4,3.8,4.2,6.4,2.5,3.5-6.3-5.3-12-11.1-10.2-7.2,2.4-8.9,10.8-11.5,17-1.1-.5-2.6-.3-3.5.3-1.6-4-3-8.4-6.2-11.4-4.8-4.6-14-2.8-16.3,3.5-2,5.1,4.1,9.2,4.4,3.9Z" style="fill: #5b955d; stroke-width: 0px;"/>
        <path d="M941.9,203.4c1.5,1.2,5.2-1.8,6.6-2.6,5.3-3.3,9.3-10.1,5.4-15.9-14-15-35.9,1.8-42.6,16.3,0,0,0,0,0,0-.7.9.5,2.2,1.4,1.4.6-.5,5.5-8.3,13.1-12.2,5.2-2.6,12.5-5.5,17.9-1.6,7.7,9.2-3.4,11.2-1.8,14.5Z" style="fill: #5b955d; stroke-width: 0px;"/>
        <path d="M899.8,221.6c7.8,2.1,7.4-6,2.7-6.7-4.2-1.1-6.3,4.5-2.7,6.7Z" style="fill: #5b955d; stroke-width: 0px;"/>
        <path d="M939.1,280.4c-19.9-5.2-31.6-17.6-35.9-37.4-1.1-5.7-2.4-10.6-.5-16.2.6-1.7-1.3-3.6-2.2-3.8-2.2-.5-4.8.6-4.8,3.3-.8,8,.1,16.9,3.1,24.5,8.2,17.9,19.5,28,39.5,31.6,2,.8,2.9-1.3.8-1.9Z" style="fill: #5b955d; stroke-width: 0px;"/>
        <path d="M986,247.2c-4.3.3-.4,6.9-5.6,14.1-6.3,10.3-20.5,16.5-32.4,15.5-11.9-3-23.8-7.8-30-18.7-7.2-11-5.8-28.1,4.6-36.7,7.1-5.3,18.4-3.9,24.6,2.1.7,2,3.5.4,2-1.2-2.8-6.6-11.6-9.1-18.3-8.6,7.3-5.2,6.6-21.3-4.9-16.5-1.2.8-2.3,2.3-1,3.5.6.5,1.1.5,1.7.3,2.1-.6,4.1,1.3,3.7,3.5-1.4,7.3-10.6,10.6-14.1,17-8.4,7.2-8.9,21.1-5.4,30.6,6.5,17.6,25.2,28.3,44.4,28.5,13.9.6,27.5-8.7,32.7-21.4.9-3.4,3-11.4-2-12.1Z" style="fill: #5b955d; stroke-width: 0px;"/>
        <path d="M966.8,245.9c1.8,1,9.5,5.4,11,3.9,1.8-6.2-3-12.7-8.8-14.7,4-.8,6.1-3.4,7.1-7.2,1-1.5.9-5.1-1.7-3.7-2,3.6-6.1,2.5-9.5,2.4,1.9-2.1,6.1-11.7,1.7-12.5-1.3,0-1.6,1.5-2.4,2.3-1.6,2-3.9,3.2-5.9,4.7,5.3-13.7.3-12.6,1.5-22.7.7-1.2.6-2.9-1.1-2.9-1.9.6-2.5,3.3-3.7,4.8-7.1,6.7-1.4,18-3.4,26.3-.8,0-1.5.3-2.1.8-2.4-1.6-5.1-2.9-8-3-5.8-.6-10.8,3-15.6,5.8-1.1.4-1.3,2.1-.1,2.7,2.8,1.2,4.5,4.3,7.6,5.3,4.9,1.9,10.6.2,14.6-3-1.9,4.2-11.2,4.4-14.9,8-3.2,2.6-6,5.8-8.3,9.3-.9,1.8-4.2,3.5-2.8,5.6,2.3,1.7,5.9-1.3,8.6-1.4,7.9-2.5,16.3-6.4,20.5-13.9-1.3,7.4-3,17,3.9,22.2,0,0,0,0,0,0,1.2.9,1.9-.1,2-1.3,3.3-8.4,8.2-11.9,4.4-21.9,1.6,1.7,3.5,3.1,5.6,4.1Z" style="fill: #5b955d; stroke-width: 0px;"/>
        <path d="M898.3,166.8c7,3.3,8.7,11.3,7.4,18.2,0,1-.9,2.7.5,3,1.1,0,1.1-1.4,1.3-2.2,5.1-6,5.1-17.1-2.4-21.5-2-1.2-7.7-3.2-8.1.5,0,.9.6,1.6,1.3,1.9Z" style="fill: #5b955d; stroke-width: 0px;"/>
        <path d="M914.4,168.8c-.1,2.1-3.2,6.4-.4,7.5,2.4.5,2.4-2.8,2.9-4.4,1.1-6.4,4.4-12.3,5.2-18.9,1.1-3.8,1.3-17.1-5.4-13.8-2.1,5.3.3,11.7-.5,17.3-.5,4.1-.9,8.2-1.8,12.2Z" style="fill: #5b955d; stroke-width: 0px;"/>
        <path d="M899.9,144.8c-1,2.2-2.8,4-3.8,6.2-1.1,5.1,6.4,3.8,8.7,1.5,5.2-5,3.9-16.1,12.9-16.8,1.1.6,2.5.4,3.5-.2,3.3,7.9,12.1,20.6,21.6,14,.3-1.6-1.8-1.7-2.8-2.4-7.6-6.4-4.2-20.7-18.5-19.2,6.5-14.7-11.4-23.4-7.5-37.2.2-2.2-2.9-2.5-3.2-.4-.9,4.3-3.4,8.1-3.9,12.5-2.6,9.6.9,19.7,5.7,28-8.8-.3-10.1,7.7-12.7,14.1Z" style="fill: #5b955d; stroke-width: 0px;"/>
        <path d="M971.9,130c2.6,3.2,15.4-11.8,16-14.8,13.9-30.5-26.5-36.9-23.4-11,1.1,7.7,12.3,9.8,10.1,4.4-12.4-6.8,6.7-20.2,8.7,0,.5,10.3-10.1,17.7-11.3,19.3-.5.6-.6,1.3-.1,2Z" style="fill: #5b955d; stroke-width: 0px;"/>
        <path d="M1057.6,131.7c6-6.9-4.8-5.5-6.6-9.6-1.8-3-.9-6.5-2.2-9.6-.7-2.1-3.6-2.9-3.2-5.4.8-6.5,5.4-7.7,9-4.9-2.2,3.1,3.3,4.8,3.9,1.5,1-5.4-6.2-9.1-10.7-6.9-9.3,3.8-11,13.7-5.5,21.6-12.3-8.1-24.6-16.9-31.6-30.3-6.6-14.7-10.9-33.4-.3-47.3,2.6-2.1,0-5.4-3.5-5.1-7.8.7-1.6,14.3-7.6,14.8-4.6.4-1.2-9.3-6.6-13-4-2.7-7.1-.5-7.1,1.1.3,1.3,1.3,2.2,1.8,3.4,2.8,5,5.1,10,7.3,15.3,1.3,5.2,1.1,10.7,2.2,16,4.3,21.5,23.7,35.5,40,48.2,4.3,2.6,16,12.7,20.6,10Z" style="fill: #5b955d; stroke-width: 0px;"/>
        <path d="M1106.4,190.9c0-3-1.7-13.5-2.2-15.4-1-8.8-4.4-17.1-4.7-26-1.1-6.4,7.8-14.6.4-19.4,3.1-3.7,5.2-8.4,5.7-13.2-.2-2.9,1.8-15.7-3.2-14.5-.8.2-1.2,1.2-.8,1.9,1.4,2.4,1.2,5.2-.2,7.6-9.3,21.2-17,23-6.8,47.7-1.1-2.3-15.3-18.4-17.1-14.8-1.2.8-2.6,2.6-1.5,4.1,8.4,8.7,18.8,16,23.6,27.6-10.3-7.1-29-11.9-36,1.8-1.3,2.1,1.2,4.6,3.3,3.3,5.2-5,10.6-4.1,17.2-3.7,8.6.4,19.7,4.3,19.7,13.5s2.4,2.2,2.4-.5Z" style="fill: #5b955d; stroke-width: 0px;"/>
        <path d="M1018.3,27.5c-2.3.8-.5,4.1,1.5,3.5,6.9-2.1,14.3-2.6,21.3-1.1,7.4,2.6,13.2,7.8,13.5,16,0,.8.2,1.8.9,2.3,8.2,2.7-2.1-15.9-5.2-17.6,9.7,5.4,21.7,8.4,30.5.1,8.6-8.1-4.7-23.9-10.6-15-.9,2.4,2.1,3.8,3.5,1.7,1.8,0,3.4,1.2,4.1,2.9-5,1.1-3.5,8-7.5,10.2-7.7,3.4-13.9.4-20.9-3.1-9.7-2.6-21.7-4.6-31.1,0Z" style="fill: #5b955d; stroke-width: 0px;"/>
        <path d="M1068.6,56.6c8.1-2,13.7-9.2,10.2-17.5-1.1-1.6-2.9-.7-4.3,0-5.8,1.6-10.4,5.7-13,11-1,1.7-2.1,6.3-4.8,5-8-11.9-24-10.3-24.4,5.5.4,1.9-2,5.9.5,6.5,6.1.5,10.3-3.5,14.8-6.7,1.2-.5,4-2,4.1.3.5,9.7-15.6,7.1-20.4,17.7-1,1.3-9.9,16.1-5.1,14.3,0,0,0,0,0,0,2.5-4.2,7.6-4,11.6-5.8,4.5-1.7,8.8-4.6,11.7-8.5,1.6-1.9,2.5-5.1,5-6-3.9,6.6-4.7,16.2,2.4,21,3.1,2.1,2.5-3.4,3.3-5.1,1.9-3.9,1.5-8.2,1.5-12.4,1.8,4.4,1.8,9.3,4.6,13.3,1.1,1.7,4.4,5.1,6.3,2.7.2-4.8-.4-10-2-14.5,4.7.8,10.9-.3,13.6-4.6,3.2-2.2-3.6-6.9-5.9-7.2-4.6-2.1-10.2-.4-14.6-2.7-.5-3.1,2.2-5.2,4.9-6.1Z" style="fill: #5b955d; stroke-width: 0px;"/>
      </g>
      <g id="dots" style="opacity: 0;">
        <path d="M869.9,43.2c-3.4,0-3.1,4.6,0,4.6s3.3-4.6,0-4.6Z" style="fill: #e6e2d2; stroke-width: 0px;"/>
        <path d="M874.9,62.9c-3.4,0-3.1,4.6,0,4.6s3.3-4.6,0-4.6Z" style="fill: #e6e2d2; stroke-width: 0px;"/>
        <path d="M872.6,95.3c-3.4,0-3.1,4.6,0,4.6s3.3-4.6,0-4.6Z" style="fill: #e6e2d2; stroke-width: 0px;"/>
        <path d="M869.1,75.4c-3.4,0-3.1,4.6,0,4.6s3.3-4.6,0-4.6Z" style="fill: #e6e2d2; stroke-width: 0px;"/>
        <path d="M872.5,123.7c-3.4,0-3.1,4.6,0,4.6s3.3-4.6,0-4.6Z" style="fill: #e6e2d2; stroke-width: 0px;"/>
        <path d="M904.4,76.4c-3.4,0-3.1,4.6,0,4.6s3.3-4.6,0-4.6Z" style="fill: #e6e2d2; stroke-width: 0px;"/>
        <path d="M903.8,87.5c-3.4,0-3.1,4.6,0,4.6s3.3-4.6,0-4.6Z" style="fill: #e6e2d2; stroke-width: 0px;"/>
        <path d="M903.9,122.3c-3.4,0-3.1,4.6,0,4.6s3.3-4.6,0-4.6Z" style="fill: #e6e2d2; stroke-width: 0px;"/>
        <path d="M928.4,120.9c-3.4,0-3.1,4.6,0,4.6s3.3-4.6,0-4.6Z" style="fill: #e6e2d2; stroke-width: 0px;"/>
        <path d="M930.3,153.6c-3.4,0-3.1,4.6,0,4.6s3.3-4.6,0-4.6Z" style="fill: #e6e2d2; stroke-width: 0px;"/>
        <path d="M909.8,156.8c-3.4,0-3.1,4.6,0,4.6s3.3-4.6,0-4.6Z" style="fill: #e6e2d2; stroke-width: 0px;"/>
        <path d="M940.5,171.3c-3.4,0-3.1,4.6,0,4.6s3.3-4.6,0-4.6Z" style="fill: #e6e2d2; stroke-width: 0px;"/>
        <path d="M947.6,165.7c-3.4,0-3.1,4.6,0,4.6s3.3-4.6,0-4.6Z" style="fill: #e6e2d2; stroke-width: 0px;"/>
        <path d="M944,209.2c-3.4,0-3.1,4.6,0,4.6s3.3-4.6,0-4.6Z" style="fill: #e6e2d2; stroke-width: 0px;"/>
        <path d="M939.5,191.8c-3.4,0-3.1,4.6,0,4.6s3.3-4.6,0-4.6Z" style="fill: #e6e2d2; stroke-width: 0px;"/>
        <path d="M919.4,206.7c-3.4,0-3.1,4.6,0,4.6s3.3-4.6,0-4.6Z" style="fill: #e6e2d2; stroke-width: 0px;"/>
        <path d="M910.8,215.6c-3.4,0-3.1,4.6,0,4.6s3.3-4.6,0-4.6Z" style="fill: #e6e2d2; stroke-width: 0px;"/>
        <path d="M922.7,236.9c-3.4,0-3.1,4.6,0,4.6s3.3-4.6,0-4.6Z" style="fill: #e6e2d2; stroke-width: 0px;"/>
        <path d="M921.9,246.3c-3.4,0-3.1,4.6,0,4.6s3.3-4.6,0-4.6Z" style="fill: #e6e2d2; stroke-width: 0px;"/>
        <path d="M933.5,262.5c-3.4,0-3.1,4.6,0,4.6s3.3-4.6,0-4.6Z" style="fill: #e6e2d2; stroke-width: 0px;"/>
        <path d="M943.4,258.5c-3.4,0-3.1,4.6,0,4.6s3.3-4.6,0-4.6Z" style="fill: #e6e2d2; stroke-width: 0px;"/>
        <path d="M947.8,268.5c-3.4,0-3.1,4.6,0,4.6s3.3-4.6,0-4.6Z" style="fill: #e6e2d2; stroke-width: 0px;"/>
        <path d="M963.9,265.5c-3.4,0-3.1,4.6,0,4.6s3.3-4.6,0-4.6Z" style="fill: #e6e2d2; stroke-width: 0px;"/>
        <path d="M974,259.2c-3.4,0-3.1,4.6,0,4.6s3.3-4.6,0-4.6Z" style="fill: #e6e2d2; stroke-width: 0px;"/>
        <path d="M980.9,235c-3.4,0-3.1,4.6,0,4.6s3.3-4.6,0-4.6Z" style="fill: #e6e2d2; stroke-width: 0px;"/>
        <path d="M900.6,188.9c-3.4,0-3.1,4.6,0,4.6s3.3-4.6,0-4.6Z" style="fill: #e6e2d2; stroke-width: 0px;"/>
        <path d="M871,137.6c-3.4,0-3.1,4.6,0,4.6s3.3-4.6,0-4.6Z" style="fill: #e6e2d2; stroke-width: 0px;"/>
        <path d="M870.1,153.3c-3.4,0-3.1,4.6,0,4.6s3.3-4.6,0-4.6Z" style="fill: #e6e2d2; stroke-width: 0px;"/>
        <path d="M869.3,234.2c-3.4,0-3.1,4.6,0,4.6s3.3-4.6,0-4.6Z" style="fill: #e6e2d2; stroke-width: 0px;"/>
        <path d="M869.3,246.8c-3.4,0-3.1,4.6,0,4.6s3.3-4.6,0-4.6Z" style="fill: #e6e2d2; stroke-width: 0px;"/>
        <path d="M912.7,276.2c-3.4,0-3.1,4.6,0,4.6s3.3-4.6,0-4.6Z" style="fill: #e6e2d2; stroke-width: 0px;"/>
        <path d="M922.4,280.3c-3.4,0-3.1,4.6,0,4.6s3.3-4.6,0-4.6Z" style="fill: #e6e2d2; stroke-width: 0px;"/>
        <path d="M981,279.3c-3.4,0-3.1,4.6,0,4.6s3.3-4.6,0-4.6Z" style="fill: #e6e2d2; stroke-width: 0px;"/>
        <path d="M991.7,269.6c-3.4,0-3.1,4.6,0,4.6s3.3-4.6,0-4.6Z" style="fill: #e6e2d2; stroke-width: 0px;"/>
        <path d="M998.5,277.4c-3.4,0-3.1,4.6,0,4.6s3.3-4.6,0-4.6Z" style="fill: #e6e2d2; stroke-width: 0px;"/>
        <path d="M1016.5,277c-3.4,0-3.1,4.6,0,4.6s3.3-4.6,0-4.6Z" style="fill: #e6e2d2; stroke-width: 0px;"/>
        <path d="M1027.1,266.9c-3.4,0-3.1,4.6,0,4.6s3.3-4.6,0-4.6Z" style="fill: #e6e2d2; stroke-width: 0px;"/>
        <path d="M1035.9,278.1c-3.4,0-3.1,4.6,0,4.6s3.3-4.6,0-4.6Z" style="fill: #e6e2d2; stroke-width: 0px;"/>
        <path d="M1052.4,269.8c-3.4,0-3.1,4.6,0,4.6s3.3-4.6,0-4.6Z" style="fill: #e6e2d2; stroke-width: 0px;"/>
        <path d="M1061.4,266.8c-3.4,0-3.1,4.6,0,4.6s3.3-4.6,0-4.6Z" style="fill: #e6e2d2; stroke-width: 0px;"/>
        <path d="M1085.6,263.3c-3.4,0-3.1,4.6,0,4.6s3.3-4.6,0-4.6Z" style="fill: #e6e2d2; stroke-width: 0px;"/>
        <path d="M1092.6,255c-3.4,0-3.1,4.6,0,4.6s3.3-4.6,0-4.6Z" style="fill: #e6e2d2; stroke-width: 0px;"/>
        <path d="M1096.4,233.7c-3.4,0-3.1,4.6,0,4.6s3.3-4.6,0-4.6Z" style="fill: #e6e2d2; stroke-width: 0px;"/>
        <path d="M1087.2,215.8c-3.4,0-3.1,4.6,0,4.6s3.3-4.6,0-4.6Z" style="fill: #e6e2d2; stroke-width: 0px;"/>
        <path d="M1078.8,219.1c-3.4,0-3.1,4.6,0,4.6s3.3-4.6,0-4.6Z" style="fill: #e6e2d2; stroke-width: 0px;"/>
        <path d="M1051.1,208.3c-3.4,0-3.1,4.6,0,4.6s3.3-4.6,0-4.6Z" style="fill: #e6e2d2; stroke-width: 0px;"/>
        <path d="M1060.3,189.4c-3.4,0-3.1,4.6,0,4.6s3.3-4.6,0-4.6Z" style="fill: #e6e2d2; stroke-width: 0px;"/>
        <path d="M1070.5,184.1c-3.4,0-3.1,4.6,0,4.6s3.3-4.6,0-4.6Z" style="fill: #e6e2d2; stroke-width: 0px;"/>
        <path d="M1078.9,191.4c-3.4,0-3.1,4.6,0,4.6s3.3-4.6,0-4.6Z" style="fill: #e6e2d2; stroke-width: 0px;"/>
        <path d="M1098.3,185.6c-3.4,0-3.1,4.6,0,4.6s3.3-4.6,0-4.6Z" style="fill: #e6e2d2; stroke-width: 0px;"/>
        <path d="M1093.6,279.7c-3.4,0-3.1,4.6,0,4.6s3.3-4.6,0-4.6Z" style="fill: #e6e2d2; stroke-width: 0px;"/>
        <path d="M1142.3,258.4c-3.4,0-3.1,4.6,0,4.6s3.3-4.6,0-4.6Z" style="fill: #e6e2d2; stroke-width: 0px;"/>
        <path d="M1141.6,247.6c-3.4,0-3.1,4.6,0,4.6s3.3-4.6,0-4.6Z" style="fill: #e6e2d2; stroke-width: 0px;"/>
        <path d="M1141.6,229.4c-3.4,0-3.1,4.6,0,4.6s3.3-4.6,0-4.6Z" style="fill: #e6e2d2; stroke-width: 0px;"/>
        <path d="M1140.1,183.2c-3.4,0-3.1,4.6,0,4.6s3.3-4.6,0-4.6Z" style="fill: #e6e2d2; stroke-width: 0px;"/>
        <path d="M1140.6,169c-3.4,0-3.1,4.6,0,4.6s3.3-4.6,0-4.6Z" style="fill: #e6e2d2; stroke-width: 0px;"/>
        <path d="M1141.4,143.1c-3.4,0-3.1,4.6,0,4.6s3.3-4.6,0-4.6Z" style="fill: #e6e2d2; stroke-width: 0px;"/>
        <path d="M1142,117.1c-3.4,0-3.1,4.6,0,4.6s3.3-4.6,0-4.6Z" style="fill: #e6e2d2; stroke-width: 0px;"/>
        <path d="M1141.6,106.9c-3.4,0-3.1,4.6,0,4.6s3.3-4.6,0-4.6Z" style="fill: #e6e2d2; stroke-width: 0px;"/>
        <path d="M1142.5,74.6c-3.4,0-3.1,4.6,0,4.6s3.3-4.6,0-4.6Z" style="fill: #e6e2d2; stroke-width: 0px;"/>
        <path d="M1142.8,64.3c-3.4,0-3.1,4.6,0,4.6s3.3-4.6,0-4.6Z" style="fill: #e6e2d2; stroke-width: 0px;"/>
        <path d="M1140.9,17.7c-3.4,0-3.1,4.6,0,4.6s3.3-4.6,0-4.6Z" style="fill: #e6e2d2; stroke-width: 0px;"/>
        <path d="M1132.5,21.2c-3.4,0-3.1,4.6,0,4.6s3.3-4.6,0-4.6Z" style="fill: #e6e2d2; stroke-width: 0px;"/>
        <path d="M1140.8,27.1c-3.4,0-3.1,4.6,0,4.6s3.3-4.6,0-4.6Z" style="fill: #e6e2d2; stroke-width: 0px;"/>
        <path d="M1091.6,16.8c-3.4,0-3.1,4.6,0,4.6s3.3-4.6,0-4.6Z" style="fill: #e6e2d2; stroke-width: 0px;"/>
        <path d="M1063.7,95.6c-3.4,0-3.1,4.6,0,4.6s3.3-4.6,0-4.6Z" style="fill: #e6e2d2; stroke-width: 0px;"/>
        <path d="M1054.6,111.8c-3.4,0-3.1,4.6,0,4.6s3.3-4.6,0-4.6Z" style="fill: #e6e2d2; stroke-width: 0px;"/>
        <path d="M1059.4,117.2c-3.4,0-3.1,4.6,0,4.6s3.3-4.6,0-4.6Z" style="fill: #e6e2d2; stroke-width: 0px;"/>
        <path d="M1045.9,136.5c-3.4,0-3.1,4.6,0,4.6s3.3-4.6,0-4.6Z" style="fill: #e6e2d2; stroke-width: 0px;"/>
        <path d="M1045.7,148.2c-3.4,0-3.1,4.6,0,4.6s3.3-4.6,0-4.6Z" style="fill: #e6e2d2; stroke-width: 0px;"/>
        <path d="M1047,217.4c-3.4,0-3.1,4.6,0,4.6s3.3-4.6,0-4.6Z" style="fill: #e6e2d2; stroke-width: 0px;"/>
        <path d="M1039,158.7c-3.4,0-3.1,4.6,0,4.6s3.3-4.6,0-4.6Z" style="fill: #e6e2d2; stroke-width: 0px;"/>
        <path d="M1032.8,155.8c-3.4,0-3.1,4.6,0,4.6s3.3-4.6,0-4.6Z" style="fill: #e6e2d2; stroke-width: 0px;"/>
        <path d="M1022.8,157.9c-3.4,0-3.1,4.6,0,4.6s3.3-4.6,0-4.6Z" style="fill: #e6e2d2; stroke-width: 0px;"/>
        <path d="M1028.2,144.9c-3.4,0-3.1,4.6,0,4.6s3.3-4.6,0-4.6Z" style="fill: #e6e2d2; stroke-width: 0px;"/>
        <path d="M1038.2,144.1c-3.4,0-3.1,4.6,0,4.6s3.3-4.6,0-4.6Z" style="fill: #e6e2d2; stroke-width: 0px;"/>
        <path d="M1024.9,118c-3.4,0-3.1,4.6,0,4.6s3.3-4.6,0-4.6Z" style="fill: #e6e2d2; stroke-width: 0px;"/>
        <path d="M1002.6,122.6c-3.4,0-3.1,4.6,0,4.6s3.3-4.6,0-4.6Z" style="fill: #e6e2d2; stroke-width: 0px;"/>
        <path d="M984.7,141.9c-3.4,0-3.1,4.6,0,4.6s3.3-4.6,0-4.6Z" style="fill: #e6e2d2; stroke-width: 0px;"/>
        <path d="M995.5,146.8c-3.4,0-3.1,4.6,0,4.6s3.3-4.6,0-4.6Z" style="fill: #e6e2d2; stroke-width: 0px;"/>
        <path d="M988.5,153.8c-3.4,0-3.1,4.6,0,4.6s3.3-4.6,0-4.6Z" style="fill: #e6e2d2; stroke-width: 0px;"/>
        <path d="M1004.5,160.5c-3.4,0-3.1,4.6,0,4.6s3.3-4.6,0-4.6Z" style="fill: #e6e2d2; stroke-width: 0px;"/>
        <path d="M996.8,179.4c-3.4,0-3.1,4.6,0,4.6s3.3-4.6,0-4.6Z" style="fill: #e6e2d2; stroke-width: 0px;"/>
        <path d="M1003.1,187.8c-3.4,0-3.1,4.6,0,4.6s3.3-4.6,0-4.6Z" style="fill: #e6e2d2; stroke-width: 0px;"/>
        <path d="M1005.3,200.3c-3.4,0-3.1,4.6,0,4.6s3.3-4.6,0-4.6Z" style="fill: #e6e2d2; stroke-width: 0px;"/>
        <path d="M1022.7,192.9c-3.4,0-3.1,4.6,0,4.6s3.3-4.6,0-4.6Z" style="fill: #e6e2d2; stroke-width: 0px;"/>
        <path d="M1029.7,179c-3.4,0-3.1,4.6,0,4.6s3.3-4.6,0-4.6Z" style="fill: #e6e2d2; stroke-width: 0px;"/>
        <path d="M1029.5,188.6c-3.4,0-3.1,4.6,0,4.6s3.3-4.6,0-4.6Z" style="fill: #e6e2d2; stroke-width: 0px;"/>
        <path d="M1021.9,204.3c-3.4,0-3.1,4.6,0,4.6s3.3-4.6,0-4.6Z" style="fill: #e6e2d2; stroke-width: 0px;"/>
        <path d="M1001.5,153.3c-3.4,0-3.1,4.6,0,4.6s3.3-4.6,0-4.6Z" style="fill: #e6e2d2; stroke-width: 0px;"/>
        <path d="M1062.2,106.7c-3.4,0-3.1,4.6,0,4.6s3.3-4.6,0-4.6Z" style="fill: #e6e2d2; stroke-width: 0px;"/>
        <path d="M1084.8,137.1c-3.4,0-3.1,4.6,0,4.6s3.3-4.6,0-4.6Z" style="fill: #e6e2d2; stroke-width: 0px;"/>
        <path d="M1092.1,119c-3.4,0-3.1,4.6,0,4.6s3.3-4.6,0-4.6Z" style="fill: #e6e2d2; stroke-width: 0px;"/>
        <path d="M1096.4,111c-3.4,0-3.1,4.6,0,4.6s3.3-4.6,0-4.6Z" style="fill: #e6e2d2; stroke-width: 0px;"/>
        <path d="M1105.2,91.5c-3.4,0-3.1,4.6,0,4.6s3.3-4.6,0-4.6Z" style="fill: #e6e2d2; stroke-width: 0px;"/>
        <path d="M1107.4,82.7c-3.4,0-3.1,4.6,0,4.6s3.3-4.6,0-4.6Z" style="fill: #e6e2d2; stroke-width: 0px;"/>
        <path d="M1035.5,101.2c-3.4,0-3.1,4.6,0,4.6s3.3-4.6,0-4.6Z" style="fill: #e6e2d2; stroke-width: 0px;"/>
        <path d="M1027.1,95.8c-3.4,0-3.1,4.6,0,4.6s3.3-4.6,0-4.6Z" style="fill: #e6e2d2; stroke-width: 0px;"/>
        <path d="M1040,90.8c-3.4,0-3.1,4.6,0,4.6s3.3-4.6,0-4.6Z" style="fill: #e6e2d2; stroke-width: 0px;"/>
        <path d="M1009.5,60.6c-3.4,0-3.1,4.6,0,4.6s3.3-4.6,0-4.6Z" style="fill: #e6e2d2; stroke-width: 0px;"/>
        <path d="M1010.7,68.6c-3.4,0-3.1,4.6,0,4.6s3.3-4.6,0-4.6Z" style="fill: #e6e2d2; stroke-width: 0px;"/>
        <path d="M1030.1,33.8c-3.4,0-3.1,4.6,0,4.6s3.3-4.6,0-4.6Z" style="fill: #e6e2d2; stroke-width: 0px;"/>
        <path d="M1033.8,42.8c-3.4,0-3.1,4.6,0,4.6s3.3-4.6,0-4.6Z" style="fill: #e6e2d2; stroke-width: 0px;"/>
        <path d="M1042.9,36.3c-3.4,0-3.1,4.6,0,4.6s3.3-4.6,0-4.6Z" style="fill: #e6e2d2; stroke-width: 0px;"/>
        <path d="M1062.1,38.1c-3.4,0-3.1,4.6,0,4.6s3.3-4.6,0-4.6Z" style="fill: #e6e2d2; stroke-width: 0px;"/>
        <path d="M1064.6,23.4c-3.4,0-3.1,4.6,0,4.6s3.3-4.6,0-4.6Z" style="fill: #e6e2d2; stroke-width: 0px;"/>
        <path d="M1059.1,15.5c-3.4,0-3.1,4.6,0,4.6s3.3-4.6,0-4.6Z" style="fill: #e6e2d2; stroke-width: 0px;"/>
        <path d="M1047.9,19.3c-3.4,0-3.1,4.6,0,4.6s3.3-4.6,0-4.6Z" style="fill: #e6e2d2; stroke-width: 0px;"/>
        <path d="M1031.4,14.5c-3.4,0-3.1,4.6,0,4.6s3.3-4.6,0-4.6Z" style="fill: #e6e2d2; stroke-width: 0px;"/>
        <path d="M1016.6,19.5c-3.4,0-3.1,4.6,0,4.6s3.3-4.6,0-4.6Z" style="fill: #e6e2d2; stroke-width: 0px;"/>
        <path d="M1005.3,15.5c-3.4,0-3.1,4.6,0,4.6s3.3-4.6,0-4.6Z" style="fill: #e6e2d2; stroke-width: 0px;"/>
        <path d="M987.9,18.2c-3.4,0-3.1,4.6,0,4.6s3.3-4.6,0-4.6Z" style="fill: #e6e2d2; stroke-width: 0px;"/>
        <path d="M975,15.7c-3.4,0-3.1,4.6,0,4.6s3.3-4.6,0-4.6Z" style="fill: #e6e2d2; stroke-width: 0px;"/>
        <path d="M971,32.7c-3.4,0-3.1,4.6,0,4.6s3.3-4.6,0-4.6Z" style="fill: #e6e2d2; stroke-width: 0px;"/>
        <path d="M999.3,32.2c-3.4,0-3.1,4.6,0,4.6s3.3-4.6,0-4.6Z" style="fill: #e6e2d2; stroke-width: 0px;"/>
        <path d="M980.9,44.3c-3.4,0-3.1,4.6,0,4.6s3.3-4.6,0-4.6Z" style="fill: #e6e2d2; stroke-width: 0px;"/>
        <path d="M992.3,67.6c-3.4,0-3.1,4.6,0,4.6s3.3-4.6,0-4.6Z" style="fill: #e6e2d2; stroke-width: 0px;"/>
        <path d="M996.6,100.2c-3.4,0-3.1,4.6,0,4.6s3.3-4.6,0-4.6Z" style="fill: #e6e2d2; stroke-width: 0px;"/>
        <path d="M978.3,102.8c-3.4,0-3.1,4.6,0,4.6s3.3-4.6,0-4.6Z" style="fill: #e6e2d2; stroke-width: 0px;"/>
        <path d="M958.5,82.9c-3.4,0-3.1,4.6,0,4.6s3.3-4.6,0-4.6Z" style="fill: #e6e2d2; stroke-width: 0px;"/>
        <path d="M959.6,92.9c-3.4,0-3.1,4.6,0,4.6s3.3-4.6,0-4.6Z" style="fill: #e6e2d2; stroke-width: 0px;"/>
        <path d="M974.5,82.9c-3.4,0-3.1,4.6,0,4.6s3.3-4.6,0-4.6Z" style="fill: #e6e2d2; stroke-width: 0px;"/>
        <path d="M971,116.3c-3.4,0-3.1,4.6,0,4.6s3.3-4.6,0-4.6Z" style="fill: #e6e2d2; stroke-width: 0px;"/>
        <path d="M948.6,26.6c-3.4,0-3.1,4.6,0,4.6s3.3-4.6,0-4.6Z" style="fill: #e6e2d2; stroke-width: 0px;"/>
        <path d="M870.7,30.4c-3.4,0-3.1,4.6,0,4.6s3.3-4.6,0-4.6Z" style="fill: #e6e2d2; stroke-width: 0px;"/>
        <path d="M1104.8,145c-3.4,0-3.1,4.6,0,4.6s3.3-4.6,0-4.6Z" style="fill: #e6e2d2; stroke-width: 0px;"/>
        <path d="M1075.3,157c-3.4,0-3.1,4.6,0,4.6s3.3-4.6,0-4.6Z" style="fill: #e6e2d2; stroke-width: 0px;"/>
        <path d="M1081.2,162.5c-3.4,0-3.1,4.6,0,4.6s3.3-4.6,0-4.6Z" style="fill: #e6e2d2; stroke-width: 0px;"/>
        <path d="M1043.5,251.5c-3.4,0-3.1,4.6,0,4.6s3.3-4.6,0-4.6Z" style="fill: #e6e2d2; stroke-width: 0px;"/>
        <path d="M967.8,252.6c-3.4,0-3.1,4.6,0,4.6s3.3-4.6,0-4.6Z" style="fill: #e6e2d2; stroke-width: 0px;"/>
      </g>
      <g id="text">
        <path d="M893.5,263.7c-1.2-32.7,1.5-63.1.4-95.9.4-18.3,2.9-36.5,2.1-54.9-.2-8.3.7-44.1,1-52.3.1-3.9,1.8-8.6,3.1-11.2.5-1,2-1.1,2.6-.1,9.1,14.9,33.2,55.4,38.8,65.5,4.3,9.4,8.2,16.3,13,25.5,1.5,3.5,15.5-5.4,13.5-8.5-.6-1.2-.6-1.8-1.2-3-7.5-18.3-15.6-33.8-24.8-51.3-3.2-8.1-6-16.3-10.4-23.9,2.3-9.3,6.1-15.9.5-17.7-1.9-.6-45.6-.6-47.7.6-4.1,2.8-1.6,4.8,2.8,9.1,2.3,14.4.6,26.4.4,40.8,0,18.1-.6,36.2-2,54.4,0,41.3.4,82.6-1.1,123.9-7.6,10.9-15.3,17.5,7.9,15.6,4.1-.3,14.1,1.2,11-5.7-2.6-4.1-7.3-6.5-9.7-10.8Z" style="fill: #ca0; stroke-width: 0px;"/>
        <path d="M1139,35.7c-11.1-.7-19.1-.7-28.7.1-8.9-.5-7.1,7.2-2.8,12.3-7.4,14.8-13.8,25.1-20.3,40.4-8.1,16.1-42.4,95.6-51.4,117.3-5.7,13.1-12.8,25.5-17.9,38.9-8.2-20.6-18.2-40.5-27.3-60.7-4.9-11.9-9.7-23.9-14.9-35.8-.6-1.3-3.9-1.3-5.2-.7-9.9,4.6-9.5,7.7-9.2,8.5,9.3,21.9,19.1,43.6,29.4,65,5.1,12.6,9.8,25.4,15.5,37.8,2,4.5,7.5,18.7,10.3,13,3.3-6.5,10.7-25.3,14.2-33.6,15.7-34.1,31.1-68.7,46.9-102.7,15.2-25.9,25.2-58.4,39.4-84.9.2,0,.2,0,.4,0,.1,11.5,1.1,23,1.1,34.5-.4,11.5-.3,27-.3,38.5-1,10.6-1.4,69-1.9,87.6.3,14.1.5,29.1-.4,43.1-.2,5.3-.7,12.8-3.9,17.3-2.2,3-4.5,7.8,1.3,8.3,4.4.4,20.2.7,26.7-1.1,3.6-1,.4-6.2-5.1-13.5-1-40.6-.2-79.2-.2-119.8,1.9-21,1.8-82.4,3.2-93.5,1-1.7,4.6-8.7,6.1-9.9,1.8-2.2-.6-6.6-5.1-6.6Z" style="fill: #ca0; stroke-width: 0px;"/>
      </g>
      <g id="highlight">
        <path d="M1020.2,222.8c-.8,2.8-6.1,7.9-2.8,10.1,1,.5,2.3,0,2.9-1,8.6-19.6,18.3-38.7,26.7-58.4,5-10.4,8-21.7,13.4-31.9,8.7-14,13.6-33.8,21.3-48.3,4.4-7.9,6.7-16.8,11.4-24.5,2.7-6,5.2-12.2,8.2-18.1,2.3-4.1,1.5-4.5-2.2-6.7-.3-1.9,0-4.3-1.2-5.8-1-.6-2,.4-1.8,1.4,0,3.8-1.4,6.3,2.7,8.3-8.7,18.4-17.9,40.6-25.9,59.4-7.6,13.3-14,27.3-19.8,41.5-7,14.4-12.8,29.3-18.5,44.3-4.1,10.2-10.5,19.3-14.3,29.7Z" style="fill: #606060; stroke-width: 0px;"/>
        <path d="M1111.9,259.7c1.3-14.2-.1-28.1,0-43.7.6-28.2.9-56.4,1.3-84.7,1.9-15.7,2.7-35.6,1.9-51.5-.3-5.3.8-11-.7-16.1,0,0,0,0,0,0-2-1.9-1.5,9.8-1.8,10.9-1.8,18.1-2.3,40.3-2.3,58.5-1.1,23.6-.9,47.2-1.4,70.9-.4,16.6,0,34-.1,50.6,0,7.9-4.6,15-8.4,21.5-1.5,2.5,1.1,3.6,2.4,1.4,3-5.6,8.2-11.6,9.1-17.9Z" style="fill: #606060; stroke-width: 0px;"/>
        <path d="M877.6,265.5c4.3-8.2,2.7-15.6,3-24.5-.2-7.4,0-12.4.1-19.8-.3-11.4-.9-22.8,0-34.2,0-20.8.9-41.6,2.1-62.4-.8-22.1,1.4-71.7.9-75.8-.7-2.7-4.1-3.9-5.9-5.9-.3-1.8-.5-3.7-.7-5.5,0,0,0,0,0,0-.2-1.3-2.3-1.4-2.5,0-.1,2.1.2,4.1.1,6.2.6,2.6,3.7,4,5.4,6,1.8,23.4.2,44.6-1.1,68-.7,25.5-3.2,50.9-2.8,76.4.6,13.3-.6,53.8-.5,63.3,0,2.4-.5,4.4-1.8,6.5-1.8,3.9-4.6,5.7-5.5,10,0,1.7-.7,4,.8,5,1.9,1.1,2.5-.3,2.6-2.6,0-1.8.5-3.5,1.5-5,1.5-2.3,3.1-3.2,4.3-5.6Z" style="fill: #606060; stroke-width: 0px;"/>
        <path d="M949.7,145.3c-3.7-8.4-7.5-16.7-11.7-24.8-6.6-15.7-13.5-27.7-21.8-42.7-1.8-1.9-8.5-17.2-12.7-21.8-1.3-1.4-2.3-1.9-2.9-.6,0,.7,14,26.2,20.5,39.8,2.9,7.1,6.3,13.2,10.2,19.9,5.4,10.5,9.7,21.4,14.5,32.1.2,1,4.6-.8,4-2Z" style="fill: #606060; stroke-width: 0px;"/>
        <path d="M1008.2,270.9c-1.7-3.6-4-7.5-5.7-11.4-3.2-8.5-7.5-16.4-11.7-24.5-6.4-13.3-12.1-26.3-18.6-39.6-5-12.7-10.4-25-16.9-37-.5-1.5-4.5-.1-3.8,1.2,5.3,12.9,9.6,25.6,15.5,38.3,4.6,12.2,11.4,23.2,17.4,34.6,5.7,13.9,12.4,27.4,18.7,41.1,2,3.3,6.5.5,4.9-2.7Z" style="fill: #606060; stroke-width: 0px;"/>
      </g>
    </g>
    <g id="t">
      <path id="text-2" data-name="text" d="M231.2,33.4c-2.5.3-5,1.1-7.6,1-8.5.6-16.6,3.4-25.2,3.9-13.7,1.3-27.5,1.1-41.3,1.6-19.8-.4-39.6.5-59.4-.3-15.9-1.5-31.8,0-47.7-.7-6.6-.3-9.6-2.1-14-4.2-1.5-.6-5.3.7-5.5.9-7.4,7.7-26.3,24.5-30,28.1-1.7,1.7.7,4.4,1.6,4,9-2.8,19.9-5.7,29.1-7.7,14-2.1,28-4.3,42.3-4.3,9.6-1.2,19.1-.7,28.7,0,2.5,10.2,3.4,20.8,4.7,31.2-.3,10.6.4,21.1,1.3,31.7-.9,20.3,1.1,40.3-.6,60.7-.1,19.9-.5,39.9-1.5,59.8-1.9,10.2,0,27.6-6.9,34.7-2.3,2.3-3.4,2.4-3.4,4.8.2,1.9.3,2.2,2,2.4,2.3.3,27.2.4,36.2,0,1.5.4,2.2-4.1.8-5-2-1.1-4.9-4.6-6.1-7.2-8.3-14-3.4-46.6-5.1-64.2.9-14.1-1.5-28.1-.3-42.1.9-16.4.1-32.9,2.7-49.2.5-19.2,2.5-38.3,5.2-57.3,12.6-1.1,25.2-1.2,37.8-2,8.6.6,17.2,0,25.7.8,6.7,1.2,13.1,3.3,19.5,5.4,4.1,1.2,7.5-8.1,9.7-11,2.8-4.1,5.5-8.1,7.9-12.5,1.5-.8,1.2-3.4-.7-3.5Z" style="fill: #ca0; stroke-width: 0px;"/>
    </g>
  </g>
</svg>