<svg class="Layer 2" viewBox="0 0 1418.8 300">
  <g class="Layer 4">
    <g class="t">
      <path class="text" d="M1417.1,33.4c-2.5.3-5,1.1-7.6,1-8.5.6-16.6,3.4-25.2,3.9-13.7,1.3-27.5,1.1-41.3,1.6-19.8-.4-39.6.5-59.4-.3-15.9-1.5-31.8,0-47.7-.7-6.6-.3-9.6-2.1-14-4.2-1.5-.6-5.3.7-5.5.9-7.4,7.7-26.3,24.5-30,28.1-1.7,1.7.7,4.4,1.6,4,9-2.8,19.9-5.7,29.1-7.7,14-2.1,28-4.3,42.3-4.3,9.6-1.2,19.1-.7,28.7,0,2.5,10.2,3.4,20.8,4.7,31.2-.3,10.6.4,21.1,1.3,31.7-.9,20.3,1.1,40.3-.6,60.7-.1,19.9-.5,39.9-1.5,59.8-1.9,10.2,0,27.6-6.9,34.7-2.3,2.3-3.4,2.4-3.4,4.8.2,1.9.3,2.2,2,2.4,2.3.3,27.2.4,36.2,0,1.5.4,2.2-4.1.8-5-2-1.1-4.9-4.6-6.1-7.2-8.3-14-3.4-46.6-5.1-64.2.9-14.1-1.5-28.1-.3-42.1.9-16.4.1-32.9,2.7-49.2.5-19.2,2.5-38.3,5.2-57.3,12.6-1.1,25.2-1.2,37.8-2,8.6.6,17.2,0,25.7.8,6.7,1.2,13.1,3.3,19.5,5.4,4.1,1.2,7.5-8.1,9.7-11,2.8-4.1,5.5-8.1,7.9-12.5,1.5-.8,1.2-3.4-.7-3.5Z" style="fill: #ca0; stroke-width: 0px;"/>
    </g>
    <g class="t-2" class="t">
      <path class="border" d="M276.7,286.3l-.8-12.6c-.1-.9-1.5-.8-1.5.1-.1,6.5-.3,14.3-.6,16.9-.3,6.2-8.2,3.4-19.7,3.4-76.8-2.1-141.3,0-218.2-.8-7.2-1.8-25.2,4.7-26.3-3.9-2.5-20.5-.8-35.8-1.1-53.8-1.1-57.5-.4-115-1-172.6,1.9-17-1.4-37.2.8-53.4.3-2.2,2.3-3.9,4.5-3.8,59,3,109.5,1.3,168.5-.3,28.2.4,56.7,2.4,85.3,1.5,3,0,5.6-.2,5.9,2.8,2.5,31.5-2.3,69.6,0,102.3,1.3,51.2.7,75.3.8,121.4,0,1.6,0,3.5,0,5.6,0,.8,1.3.9,1.3,0,1-14.9,2.3-41.2,1.7-72-.6-30.1,1.5-60.3.6-90.3-1.5-49.1.9-64.2-.4-71.1-.2-1.1,1.8-2,.7-2.1-35-4.9-76.7-.5-113.7-1.6C120.3,1.1,88.5.6,45.1.9,38.8,1.6,1.7-3.2,1.3,4.1c-3.7,57.3,2,114.7-.4,171,2.9,23,1.1,48.3,1.6,72.2-1.6,14.7,1.5,30,.6,44.5-.7,6.5,2.2,7.7,7.5,7.4,53.8,0,95.3,1.4,149.1.4,26,.7,52.1-1,77.7.2,11.8-.1,23.6-.2,35.3,0,11.7,0,2.5-5.5,3.9-13.6Z" style="fill: #c93849; stroke-width: 0px;"/>
      <path class="full" d="M257.6,36.9c-2.4,4.4-5.1,8.4-7.9,12.5-2.2,2.9-5.6,12.2-9.7,11-26.5-10-55.4-5.2-83-4.1-6.7,49.2-8.6,99-7.6,148.6,2.6,21.2-6.5,57.4,11.2,71.3,1.4.8.7,5.3-.8,5-9,.4-33.9.3-36.2,0-1.7-.2-1.8-.5-2-2.4,0-2.4,1.2-2.5,3.4-4.8,6.9-7,5-24.5,6.9-34.6,1.1-61,6.7-123.2-3.9-183.5-33.7-2.3-68,1.8-100.2,12-1,.4-3.3-2.3-1.6-4,3.7-3.7,22.6-20.4,30-28.1.2-.2,4-1.4,5.5-.9,4.4,2.1,7.3,4,14,4.2,49.4,0,99,2.7,148.4-.6,3.9.8,41-9.6,33.4-1.4Z" style="fill: #ca0; stroke-width: 0px;"/>
      <path class="bg" d="M13.4,66.6c1.9-16.3-1.4-35.6.8-51.2.3-2.1,2.2-3.7,4.4-3.6,56.6,2.9,104.5,1.3,161-.3,27,.4,54.3,2.3,81.8,1.4,2.9,0,5.4-.2,5.6,2.7,2.4,30.2-2.2,66.7,0,98,1.3,49.1.7,72.1.8,116.4,0,19.2,1.9,35.5,0,54.6-.3,5.9-11.2,2.3-18.6,3.5-73.6-2-134.9,0-208.6-.8-6.9-1.8-24.2,4.5-25.2-3.8-2.4-19.7-.8-34.4-1-51.5-1.1-55.1-.4-110.2-.9-165.4Z" style="fill: #270d40; stroke-width: 0px;"/>
      <g class="ornaments">
        <g class="leaves2" style="opacity: .7;">
          <path d="M155.6,23.2c.7-.5,1.6-.9,2.4-1.4,12.8-4.6,9.1,1.6,17.5,6.7-.3.5-.6,1-.9,1.5-7.5,6.7,9.2,6.3,6.2-5.7,5.4,4.9,11,11,18.4,12.7,11.3,1.7,16-15.8,5.2-19.7-1.5-.3-3-.6-4.4.3-1.5.5-3.1,2.9-.9,3.6,1.2.3,1.6-1.3,2.7-1.2,5.9.9,3.6,9.2-1.4,9.8-13.8,3.3-20.2-14.7-32.8-15.6-11.2-.3-20.3,8.8-21.3,19.7,0,.8.6,1.2,1.1,1.1,1.2-.3,1.1-2.5,1.3-3.1,1.6-3.3,3.5-6.5,6.7-8.6Z" style="fill: #5b955d; stroke-width: 0px;"/>
          <path d="M234.6,26.3c-2.5.9-2.7,3.7-1.3,5,4.8,4.3,14.2.8,15.5-5.9,1.7-13-15-12.5-22.1-6.3-5.3,4.1-9.4,9.6-14.5,13.7-.5.4-1.1.6-1.8.8-1.9,1.2-.2,2.7,1.8,2.9,9.5.7,13.5-4.7,15.7-7.5,2.5-3.5,5.1-7.2,9.8-7.5,6.7-1.5,6.9,4.9,1.3,6.6,0,0,0,0,0,0-1.5,0-2.9-2.3-4.5-1.9Z" style="fill: #5b955d; stroke-width: 0px;"/>
          <path d="M107.3,78.9c-1.3-1.5-2.9-2.7-4.6-3.7,5.9,1.6,13.5-.8,15.9-6.9.8-1.2,1.4-5.1-1-3.2-3.7,2.8-7.7,5.3-12.2,6.4-3.9.7-7.8.2-11.6-.8-21.4-5.9-45.1,7.6-56.2,26-.4-6.8-3.3-15.5-10.6-17.3-.9.6-.2,1.7,0,2.5,0,4.9-.5,9.8,2.2,14.2,1.6,3.1,3.6,6,4.5,9.4-2.2,11.3-2.8,24.7,3.1,34.8-6.1-2.2-12.7,6.3-7.6,10.9,1.5,1.3,3.5-1,2-2.3-.5-2.9,3.8-3.2,6.2-2.7,2.2,0,3.9,2,5.8,2.2,3.5,3.3,7.5,6,11.4,8.8-7.3-.5-16.4,3.2-18.3,10.8-4.7.8-8.2,6.7-4.6,10.7-4.6,1.3-2,5.2,2,3.7,1.2,2.8,5.1,2.6,3.9-.9,7.7-.3,9.9-10.7,1.5-13.3,1.7-3.8,7.4-5.9,11-7.1,7.7-2.3,14.6,1.7,21.1,5.3,7.4,3.3,14.4,7.3,20.5,12.8,19.5,13.8,23.5,33.5,18.1,55.8-4.9,15.5-18.8,26.2-33.5,31.9-11.5,5.2-23.2,11-35.8,13.1-.8.1-1.3,1-1.2,1.8.4,1.7,2.3,1.2,3.6,1,5-.6,9.7-2.3,14.4-3.9,6.2-1.7,20.1-5.6,20.6-6.5,5.3-3.5,11.9-5,18.2-5.6,6,0,11.1,2,16.8-.8,1-.5,4.4-1.7,2.5-3.1-1.1,0-2.2,0-3.3-.3-6.6-2.5-13.6-3.4-20.3-.5,14.1-8.1,21.6-23,25.8-38.2,1.2-5.4-.2-10.8.9-16.2,1.7-13.8-8.4-26.2-7.7-39.7,5.7,3.2,10.8-2.7,9.5-8.6,6-2.2-5.7-12.2-7.4-7.7-7.1-1.1-10,9.3-5.3,13.8-4.7,10.6,4.8,19.1,6.6,29,.5,3.3.9,6.5,1.4,9.8-1.5-4.6-4.2-8.6-5.7-13.2-3.3-6.8-3.7-14.8-7.5-21.4-3.3-4.8-9.9-10.9-5.9-17,.6-.5.6-1.5,0-2.1-.9-1-2.2-.1-2.9.8-7,6.2.7,19,4.1,25.6-7.1-4.7-10.5-13.1-16.9-18.7-6.2-5.3-13.4-9.9-17.8-17,.6-.9.8-2.2-.2-3.3,4.6-3.3,4.3-11.8-2.2-12.3,2.9-7.2-14.1.4-8.8,2.9-3.3,5-.1,12.6,6.4,11.1,0,.9.7,2.2,1.7,2.6,2,6.8,8.4,9.8,13.7,13.8,5,4.2,9.3,9.3,13.6,14.1-14.1-8.3-31-13.6-42.4-25.7-10.7-15.7-10-39,2.3-53.7,7.4-8.8,18.7-13.4,29.7-15.9,27-5.7,52.7,30,37,54.4-5.8,10-17.1,15.6-27.6,13.6-6.4-1.2-13-8.4-10.4-15.7,1.2-.5.6-2.4-.7-2.1-3.4,1.3-3.3,6.8-2.7,9.8,2.7,8.3,9.1,13,23.4,11.5,23.9-2.6,34.9-39,18.3-57-3.1-3.3-3.9-7.1-7.1-10.3Z" style="fill: #5b955d; stroke-width: 0px;"/>
          <path d="M38.3,261c4.7-2.6,4.1-8.8-2.2-10.5,1.7-2.6-.8-5.5-3.2-2.9-3.1-3.3-7.1,1.9-3.6,4.5-5.5,3.3-.6,11.7,5,10.3,2.6,7.7-1.4,15.8-6.7,21.4-5.8,7.9,18.6-4.7,10.7-22.8Z" style="fill: #5b955d; stroke-width: 0px;"/>
          <path d="M257.9,253.9c-1.6-.7-2.1-2.2-3.2-3.4-1.3-1.1-3.2-.2-3.2,1.4-5.5-3.7-9.4,4.2-7.4,8.9-6.3,3.4-8.5,11.7-4.5,16,6.1,6.6,14,2.1,15.7,0,1.1-1.2,1.2-2.2-.5-2.2-3.3,3.6-7.9,5-12,1.8-4.9-3.3-.4-10.5,3.3-13.1,4,3.2,10.8.4,10.4-5,2.1,0,3.5-2.9,1.5-4.4Z" style="fill: #5b955d; stroke-width: 0px;"/>
          <path d="M210.5,234.5c1.4.9,3.5.2,3.9-1.4,4.1,1.5,7.4,4.8,12.1,4.9,4,.3,8.2-1.4,11.2-4,.9-1.9-2.1-3.2-3.1-4.5,3.7-1.2,6.3-4.1,8.1-7.5,2.4-5.7-7.6-1.3-9.9-.5,1.1-2.5,2.3-11.2-2.8-8.1-2.8,5.2-7.5,10.1-12.9,12.6-3.2-3.5.4-8.1,3.1-10.7,3-3.3,5.6-6.9,7.7-10.9.9-1.4,2.3-1.8,3.9-1.9,1.3-.5,1.4-2.2.3-3-3.8-2.2-8.7-.2-11.7,2.5-3.9-15-7.3-20.2-11.8-1.4-1.6-.4-2.9-1.8-4.6-1.7-2.3.2-2.3,2.7-1,4,.7,5.2,2.8,10.1,6.9,13.5,6.9,5.5-6.3,13.9-7.3,2.6-.8-3.2-5.8-12.5-9.7-10-.8,1.9-.7,4.2-1.5,6.2-2.4-1.6-12.3-5.7-13.2-1.3,1.9,5.1,6.5,9.2,11.4,11.7-1.9.9-3.8,1.8-5.3,3.3-1.2,1.3-3.1,4.9-.2,5.4,2.8-.5,5.6.3,8.4.4,6,1.2,11.1-3.7,17-2.8-.1,1,.3,1.9,1.2,2.5Z" style="fill: #5b955d; stroke-width: 0px;"/>
          <path d="M257.4,145.9c-.3,0-.6.3-.9.5,0,0-.1-.1-.2-.2-.7-3-4.1-2.2-4.4.6-.2.7-.6,1.6-.8,2.6-7.7-.3-11,8.7-4.8,13.3-14.1,13.9-28,8.6-44.7,14.8-1.1.4-2.4.8-3.2,1.7-.5.7.4,1.7,1.1,1.3,9.2-4.8,19.5-3.8,29.5-4.3,7.4-.7,15.4-3.3,19.2-10.1.4-.7.4-1.3.2-1.9,7.7,2.4,12.5-6.5,8.4-11.7,1.1-1.9,5.4-6.4.6-6.5Z" style="fill: #5b955d; stroke-width: 0px;"/>
          <path d="M200.2,165.6c-1.1,1.3-2.4,2.5-3.5,3.8-.4.6-.3,1.4.2,1.8,1.6,1,2.6-1.3,3.6-2.2,8.1-9.8,17.2-18.9,23-30.4,5.8,1.5,9-6,5.8-10.1,2-1.8,1.8-4.9-.9-5.7-.8-.8-2.3-.5-2.7.5-.9.6-1.1,1.7-1.3,2.8-5.7-.8-9.9,7.2-4.9,10.6-4.4,10.9-11.7,20.1-19.4,28.8Z" style="fill: #5b955d; stroke-width: 0px;"/>
          <path d="M185.4,132.3c.7,4.1,4.9,1.4,7.1.1,5-4.1,8.7-9.9,10.7-16.1,1.3,1.5,3.9.5,4.5-1.2,7.2,1.6,15.9,1,21.6-4.1,3-2.6,4.7-6.5,7.8-8.9.3-2.8-6.7-3.5-8.7-2.8,1.5-4.1,1.1-8.9.9-13-2.3-1.3-8.4,3.8-9.9,5.7-.2-2.1-2.3-10-4.5-5.1-1.8,2.6-3.6,5.4-4.6,8.4-1.2,2.9-.5,6.4-2.1,9.1-5.1-2.4-2.5-9.9-4.7-14.3-4.2-10.2-7.7-12.6-8.6.5-2.6-4.1-7.3-5.5-10.9-8.4-1.6-1.2-3.6,1-2.3,2.4,0,4,1.7,7.8,4.1,10.9-9.8,1.3-4.4,5.8,1.2,8.3,2.8,2.1,6.6,2.2,9.2,4.6,2.6,2.8-.8,5.4-3.8,5-3.7-.4-6.9-3.4-10.8-2.6-7.3.7-1.5,5.9,1.6,8.1-3.1.7-6.3,2.7-8.7,4.8-2,4.4,8.5,4.1,10.7,3-.4,1.9,0,3.8.4,5.6Z" style="fill: #5b955d; stroke-width: 0px;"/>
        </g>
        <g class="leaves1" style="opacity: .6;">
          <path d="M143.7,31.9c-3.2-11.8-11.4-15.4-22.6-14-8.9,1.2-16.1,9.3-9.9,15.5s7.6-3.8,2.2-4.4c-.8-4.6,4.2-2.7,9-4.6,4.8-1.8,11.3-1.2,15.3,2.2.9,1.2,2.6,1.8,3.6,5.3.9,3.2,1.9,3.1,2.4,2.4.3-.7,0-1.6,0-2.4Z" style="fill: #1a806c; stroke-width: 0px;"/>
          <path d="M135.8,31.3c-3.2-5.7-14.2-5.1-9.5.4,2.9,1.6,6.4,1.3,9,3.6h-.1c1.3.8,2.8-.6,2.2-2-.4-.7-.9-1.4-1.5-2.1Z" style="fill: #1a806c; stroke-width: 0px;"/>
          <path d="M154.8,34.5c3.1-2.5,7.5-3.2,10-6.4,2.1-3.7-1.6-5.1-4.6-3.6-3.7,1.8-11,10.5-8.5,11.8.5.2,2.5-1.3,3.1-1.7Z" style="fill: #1a806c; stroke-width: 0px;"/>
          <path d="M36.8,38.2c2.4-2.2-.8-6.1-3.3-4.3-1.5-2.8.8-5.5,2.7-7.4,11.1-9.9,25.6.6,35.5,7.2,17.7,8.5,26.6-4.2,38.7-14,2,.4,1.9-2,0-2-6,0-8,6.1-13.3,8.8-6,3-17.6,2.5-16.3-6.4,1.6-1,.6-3.6-1.3-3.2-5.2,2.2-6,8.9-2.8,12.9-8.7-4.2-15.4-12-24.9-14.9-9.5-2.3-23.7,4.4-23.7,15s5.8,10.9,8.7,8.4Z" style="fill: #1a806c; stroke-width: 0px;"/>
          <path d="M47,110.4c2.4,5.9,10.2,7.6,16,7.5,4.9,2.7,10.3,3.7,15.8,3.8,1.2,5.1,13.5,15,18.6,15.7,1.8.1,8.3.3,7.8-2.3-.9-1.8-2.8-2.8-3.9-4.4,4.6-1.4,8.4-4.9,10.8-9,.6-2.2-9.6-1-11.1-.6.8-2.1,2.7-9.6-1.7-7.1-2.6.9-12.8,10.1-13.3,4.1,2.9-6.2,12-7,15-13.6,1-1.8,4.2-8.7,2.5-10.3-2.2-.2-4.5,1.6-6.7,2.3.1-4.6-.6-9.2-1.3-13.7.3-2.4-2.2-3.8-2.8-1.2-3.8,1.9-5.8,5.8-7.3,9.6-4-3.2-5.7-8.6-8.7-.9-1.6,4-1.8,8.6-.4,12.6.7,2.4,2.9,4.1,3.1,6.6,0,1.8-.9,5.6-3.2,5.2-4.8-2.4-2.7-12.3-4.1-16.8-3.2-9.7-5.9-8.9-10-.3-1.6-1.5-10.5-7.3-11.2-3.1.9,4,1.6,8,3.1,11.8-2.7.1-6,1.8-7.1,4.3Z" style="fill: #1a806c; stroke-width: 0px;"/>
          <path d="M107.3,282.2c0-.9-.9-1.1-1.7-1.1-4.7-.6-7.4-5.4-11.7-7.2-5.7-3-12.1-.9-17.2,2.4-5.3,2.6-11.4,2.9-17,4.8-1.1.4-3.5.3-3.2,2.1.1.6.7.9,1.3.9,10.8-3.4,22.1-4.7,33.4-3.5,3.3.6,6.8,1.1,9.9,2.3,1,.5,7.5,1,6.2-.7Z" style="fill: #1a806c; stroke-width: 0px;"/>
          <path d="M43.1,233.1c-1.4,3.1.5,4.9,3.6,3.4,5.4-1.2,10.7-2.6,15.8-4.9,5.6,3.4,11.7,1.8,15.3-3.2,4.2,2.2,9.4,1.7,13.4-.8,3.8-2.7,11-6.8,2-8.1,1.8-1.1,8.3-10.7,4.1-11.1-2.2,1.7-4.5,3.5-6.8,5.2.7-2.1-1.2-9-3.4-4.7-2.3,2.8-5.2,5.3-6.7,8.7-1.1,4.8-7.7,8.3-6.4.7,1.4-3.9,4-22-1.5-22.7-.5.1-.9.6-1.1,1.1-.8,1.1-1.9,2-2.7,3.1-2-4.4-4.5-8.7-8.3-11.9-.2-.9-1.7-1.5-2.4,0-1.6,4.2-.6,8.9.3,13.2-17.5-3,4.3,13.6,3.9,19.9.3,2.6-1.8,3.8-4,2.6-2.8-1.6-4.3-4.7-6.7-6.8-2-2.5-10-4.3-6.3,1.1.9,1.4,1,2.9,1.5,4.5-2.6.3-5.2,0-7.8.4-4.8,3.2,4.6,5.9,7.1,6.4-1.3,1-2.5,2.3-3,3.9Z" style="fill: #1a806c; stroke-width: 0px;"/>
          <path d="M49.4,180.7c-9.5,5.5-17.9,14.4-20.9,25.2-3.9,7.5-.1,25.5,5.7,31.9,5.6,9.3,25.3,21.4,17.6,33.5-2,.2-1.1,2.9.6,2.5,9.7-4.4,9-17.9.4-23,7.7-.3,17.3-3.5,19.6-11.7.5-1.3,1-3.5-.3-4.6-.9-.5-2.1,0-2.2,1-2.7,12.7-17.4,17.3-26.4,7.6-14-10.6-16.7-31.5-6-46.3,11.7-16.2,35.6-19.4,52.9-10.2,3.2,2.4,6.7,4.6,9,8-4-2.3-6.6-5.8-11.1-5.5-5.7.5-7.8,6.1-4.6,10.6,1.1,2,5.2,1.7,4.2-1.1-3-4.2,4.2-5.8,7-3.7,3.4,1.8,6.6,4.2,8,7.7,5.1,14.1,3.8,29.6-4.3,42.4-5.7,7.3-13.9,12.7-21.9,17.2,2.5-3,5.1-5.6,7.1-9,4.3-.5,7.8-5.5,5.2-9.4,2.5-1.7-.2-5-2.6-3.7-1.7-.8-4.5-1.3-3.7,1.5-5.4,0-7.2,7.9-2.6,10.5-2.5,7.1-9.1,12.1-15.5,15.6-4.5,1.2-3.1,5.2-.7,3.2,10.3-5.3,21.7-9.7,30.5-17.5,9.1-9.8,15.2-19.9,14.9-33.6-.5-7.3-.6-15.1-3.9-21.8-3.3-5.6-8-12.6-16.2-16.9-15.4-7.9-24.7-3.9-28.4-15.3.3-8-12.3,3.5,4.8,11.8-5.4-.2-11.1.4-16,2.9Z" style="fill: #1a806c; stroke-width: 0px;"/>
          <path d="M254.5,74.3c3-4.8,5.8-10.3,5.5-16.1.4-1.6-1.5-3.5-2.7-1.8,0,0,0,0,0,0-.6,4.3-3,8-6.3,10.7-9.9,9.5-7,21.5-5.8,33.5-3.2-11.9-12.8-22.4-25.4-28.5-6.9-4-15.5-3.4-23.1-2.3-5.4-1.2-11.1-2.2-16.7-1.8-5.2.4-12.5,3-16.5-1.5,0-.3-.2-.6-.4-.8,0,0,0,0,0,0-.5-.8-1.7-.3-1.6.6-1.5,1.4.5,4.4,1.7,5.4,5.4,5.2,13.8,4.9,20.4,2.5-14.5,6.5-21.3,22.8-20.7,38.3-.1,1.5-1.4,2.6-1.9,4-6.1,10.3-1.6,19.8,3.5,29.2.4,1.2.2,3.3,1.8,3.5,1.2.7,1.7-1.1,2-1.9.9-7.1-3-13.9-3.3-21.1,5.3,16.2,29.4,23.6,41.3,10.4,3.2-3.9,4.2-9.6,3.6-14.5-.3-1.8-1.8-6.1-4.1-3.8-.5.7-.3,1.7.3,2.3,1.5,4,.8,9.1-1.2,12.9-7.4,12-25.9,5.9-33.1-3.1-4.1-7-7.5-15.3-5.3-23.5,2.2-8.6,4.6-17.7,11.1-24.2,11.9-9.9,26.6-12.7,41.3-7.7,16.9,8.6,27.2,27.9,23.6,46.7-.9,12.4-9.3,28.1-19.3,35.4-17.8,10.4-36.6,19.1-47.1,38.1,1.8-3.8,3.8-7.5,5.9-11.1,4.4-7,12.3-11.6,14.7-19.9,3.4-8.3-3.7-19.6-13.1-16.1-7.7,3.2-4.1,11.3-1.8,6.4.4-2.4,2.3-2.6,4.3-1.7,6.6,2.5,3.6,11.1,1.6,16-2.4,6.3-6.7,11.6-10.1,17.4-.8,1.3-4.6,7.2-3.8,8.3-1.9,6.4-4.6,11.6-5.7,18.5-2.1-14.2,0-28.5,1.5-42.7,7-1.3,9.7-10.2,2.2-13.1,1.7-.8,1.9-3.5.1-4.4-1.6-1-3.3.4-4.9.6-2.9-1.5-5.4,1.1-2.7,3.5-7.5,2.5-8.1,11.6,1.8,13.6-5.1,20-5.6,41.8.1,61.7-1.4-1.6-2.7-3.4-3.7-5.2-3.4-5.9-2.9-13.1-5.4-19.3-.9-1-1.4-3.7-3-3.3-.5,0-1.3.7-.9,1.3,0,0,0,0,0,0,2.3,5.7.4,12,1.1,17.9.8,8.3,7,15.7,14.8,17.9,4.7,12.2,14.1,21.8,24.5,29.4-13-3.8-23.2-21.2-38.1-13.3-1.7.8-.6,3.5,1.2,2.9,8.1-1.2,13.1,8.3,21,9,4.2.6,8.3,1.5,12.3,3.1-6.3,0-14.4,2.3-16,9.3-1.1,3.3,2.9,4.3,2.5-.1,10.4-9.6,31.9,3.2,45-1.5,1.9-.2,9.7.5,11.9-1.2.6-.5-.3-3.6-1.1-3.2-10.1-2.1-19-8.9-24.6-17.5,4.6-3.7.4-10.6-4.9-10.3.3-.8,0-1.7-1-2.6-1.9-1.1-2.8.6-4.3,1.5-2,.7-3.9,3-1,4-3.7,4.9,2.5,9.4,7.4,8.8,4.6,9.4,15,14.4,24.5,17.4-9.2,1.5-18.4-1.5-26.2-6.4-10.6-5.5-20.6-12.9-25.1-24.3-4.6-12.6-7.8-24.1-1.2-37.2,8.5-23.2,38.9-32.2,59.9-20.6.2,1.2,1.9,2.1,2.8,3.1,2.9,5,3.3,13.2-2,16.7-.8.3-1.3,1.2-.6,1.8,1.5,1,5-1.5,6.2-2.6,2.9-2,4.3-5.5,3.3-8.9,7.6,11.9,6.3,27,.8,39.3-4.6,13.1-26,17.9-32.2,3.6-.7-1.4-1-3-1.3-4.4-.7-1.2-2.2-.2-2.2,1-.2,14,14.4,17.9,25.6,13.5,23.8-9.8,25.1-47.1,6.2-62.4,4.5,0,9.2-2.1,11.9-5.6.6-1.1,2-2.5,1.3-3.8-.7-1-1.8,0-2.4.6-6.9,7.3-17.1,2.4-25.2.7-19.4-6.8-41.1,2.4-51.7,19.6,3.1-8.1,8.8-15,15.7-20.3,4.7-4.2,9.3-8.6,15.3-10.8,7.3-2.7,15.4-2.1,23-.4,4.6-2.8-7.6-7.8-10.2-6.7,9.4-4.6,15.9-13.1,20.3-22.5,6.2-1.5,8.8-9,11.6-14.1,1.6-4.3,3.1-9.3,7.3-11.9.7.3,1-.8.3-.9-.5-.3-1.1,0-1.6,0-5.8,3.3-10,8.4-12.2,14.7,1.7-6.4,1.8-13.1,1.3-19.7,7.6-11.8-2-19.6,7.4-33.7Z" style="fill: #1a806c; stroke-width: 0px;"/>
        </g>
        <g class="dots" style="opacity: 0;">
          <path d="M22.1,18.5c-3.4,0-3.1,4.6,0,4.6s3.3-4.6,0-4.6Z" style="fill: #e6e2d2; stroke-width: 0px;"/>
          <path d="M44.6,27.7c-3.4,0-3.1,4.6,0,4.6s3.3-4.6,0-4.6Z" style="fill: #e6e2d2; stroke-width: 0px;"/>
          <path d="M28.3,40.9c-3.4,0-3.1,4.6,0,4.6s3.3-4.6,0-4.6Z" style="fill: #e6e2d2; stroke-width: 0px;"/>
          <path d="M41.6,77.9c-3.4,0-3.1,4.6,0,4.6s3.3-4.6,0-4.6Z" style="fill: #e6e2d2; stroke-width: 0px;"/>
          <path d="M49.5,72.5c-3.4,0-3.1,4.6,0,4.6s3.3-4.6,0-4.6Z" style="fill: #e6e2d2; stroke-width: 0px;"/>
          <path d="M96.1,17.5c-3.4,0-3.1,4.6,0,4.6s3.3-4.6,0-4.6Z" style="fill: #e6e2d2; stroke-width: 0px;"/>
          <path d="M86.9,21c-3.4,0-3.1,4.6,0,4.6s3.3-4.6,0-4.6Z" style="fill: #e6e2d2; stroke-width: 0px;"/>
          <path d="M71.2,16.1c-3.4,0-3.1,4.6,0,4.6s3.3-4.6,0-4.6Z" style="fill: #e6e2d2; stroke-width: 0px;"/>
          <path d="M103.7,64.2c-3.4,0-3.1,4.6,0,4.6s3.3-4.6,0-4.6Z" style="fill: #e6e2d2; stroke-width: 0px;"/>
          <path d="M119,78.4c-3.4,0-3.1,4.6,0,4.6s3.3-4.6,0-4.6Z" style="fill: #e6e2d2; stroke-width: 0px;"/>
          <path d="M101.5,86.5c-3.4,0-3.1,4.6,0,4.6s3.3-4.6,0-4.6Z" style="fill: #e6e2d2; stroke-width: 0px;"/>
          <path d="M80.1,77c-3.4,0-3.1,4.6,0,4.6s3.3-4.6,0-4.6Z" style="fill: #e6e2d2; stroke-width: 0px;"/>
          <path d="M65,83.3c-3.4,0-3.1,4.6,0,4.6s3.3-4.6,0-4.6Z" style="fill: #e6e2d2; stroke-width: 0px;"/>
          <path d="M110.4,100.3c-3.4,0-3.1,4.6,0,4.6s3.3-4.6,0-4.6Z" style="fill: #e6e2d2; stroke-width: 0px;"/>
          <path d="M103.6,108.3c-3.4,0-3.1,4.6,0,4.6s3.3-4.6,0-4.6Z" style="fill: #e6e2d2; stroke-width: 0px;"/>
          <path d="M112,113.5c-3.4,0-3.1,4.6,0,4.6s3.3-4.6,0-4.6Z" style="fill: #e6e2d2; stroke-width: 0px;"/>
          <path d="M120.1,136.1c-3.4,0-3.1,4.6,0,4.6s3.3-4.6,0-4.6Z" style="fill: #e6e2d2; stroke-width: 0px;"/>
          <path d="M116.1,144.3c-3.4,0-3.1,4.6,0,4.6s3.3-4.6,0-4.6Z" style="fill: #e6e2d2; stroke-width: 0px;"/>
          <path d="M103,148.8c-3.4,0-3.1,4.6,0,4.6s3.3-4.6,0-4.6Z" style="fill: #e6e2d2; stroke-width: 0px;"/>
          <path d="M86.4,135c-3.4,0-3.1,4.6,0,4.6s3.3-4.6,0-4.6Z" style="fill: #e6e2d2; stroke-width: 0px;"/>
          <path d="M79.9,129.1c-3.4,0-3.1,4.6,0,4.6s3.3-4.6,0-4.6Z" style="fill: #e6e2d2; stroke-width: 0px;"/>
          <path d="M66.6,121c-3.4,0-3.1,4.6,0,4.6s3.3-4.6,0-4.6Z" style="fill: #e6e2d2; stroke-width: 0px;"/>
          <path d="M46.2,101.6c-3.4,0-3.1,4.6,0,4.6s3.3-4.6,0-4.6Z" style="fill: #e6e2d2; stroke-width: 0px;"/>
          <path d="M43.7,114.1c-3.4,0-3.1,4.6,0,4.6s3.3-4.6,0-4.6Z" style="fill: #e6e2d2; stroke-width: 0px;"/>
          <path d="M48.4,119.9c-3.4,0-3.1,4.6,0,4.6s3.3-4.6,0-4.6Z" style="fill: #e6e2d2; stroke-width: 0px;"/>
          <path d="M45.3,129.2c-3.4,0-3.1,4.6,0,4.6s3.3-4.6,0-4.6Z" style="fill: #e6e2d2; stroke-width: 0px;"/>
          <path d="M55,144c-3.4,0-3.1,4.6,0,4.6s3.3-4.6,0-4.6Z" style="fill: #e6e2d2; stroke-width: 0px;"/>
          <path d="M77.2,146.9c-3.4,0-3.1,4.6,0,4.6s3.3-4.6,0-4.6Z" style="fill: #e6e2d2; stroke-width: 0px;"/>
          <path d="M85,151.7c-3.4,0-3.1,4.6,0,4.6s3.3-4.6,0-4.6Z" style="fill: #e6e2d2; stroke-width: 0px;"/>
          <path d="M49.5,165.8c-3.4,0-3.1,4.6,0,4.6s3.3-4.6,0-4.6Z" style="fill: #e6e2d2; stroke-width: 0px;"/>
          <path d="M71.3,168.5c-3.4,0-3.1,4.6,0,4.6s3.3-4.6,0-4.6Z" style="fill: #e6e2d2; stroke-width: 0px;"/>
          <path d="M21.3,88.4c-3.4,0-3.1,4.6,0,4.6s3.3-4.6,0-4.6Z" style="fill: #e6e2d2; stroke-width: 0px;"/>
          <path d="M25.5,99.5c-3.4,0-3.1,4.6,0,4.6s3.3-4.6,0-4.6Z" style="fill: #e6e2d2; stroke-width: 0px;"/>
          <path d="M18.2,111.4c-3.4,0-3.1,4.6,0,4.6s3.3-4.6,0-4.6Z" style="fill: #e6e2d2; stroke-width: 0px;"/>
          <path d="M25.9,118.8c-3.4,0-3.1,4.6,0,4.6s3.3-4.6,0-4.6Z" style="fill: #e6e2d2; stroke-width: 0px;"/>
          <path d="M20.1,134c-3.4,0-3.1,4.6,0,4.6s3.3-4.6,0-4.6Z" style="fill: #e6e2d2; stroke-width: 0px;"/>
          <path d="M22.8,147.7c-3.4,0-3.1,4.6,0,4.6s3.3-4.6,0-4.6Z" style="fill: #e6e2d2; stroke-width: 0px;"/>
          <path d="M39.2,151.7c-3.4,0-3.1,4.6,0,4.6s3.3-4.6,0-4.6Z" style="fill: #e6e2d2; stroke-width: 0px;"/>
          <path d="M33.2,158.8c-3.4,0-3.1,4.6,0,4.6s3.3-4.6,0-4.6Z" style="fill: #e6e2d2; stroke-width: 0px;"/>
          <path d="M20.9,163.9c-3.4,0-3.1,4.6,0,4.6s3.3-4.6,0-4.6Z" style="fill: #e6e2d2; stroke-width: 0px;"/>
          <path d="M23.6,177.6c-3.4,0-3.1,4.6,0,4.6s3.3-4.6,0-4.6Z" style="fill: #e6e2d2; stroke-width: 0px;"/>
          <path d="M30,186c-3.4,0-3.1,4.6,0,4.6s3.3-4.6,0-4.6Z" style="fill: #e6e2d2; stroke-width: 0px;"/>
          <path d="M21.6,195c-3.4,0-3.1,4.6,0,4.6s3.3-4.6,0-4.6Z" style="fill: #e6e2d2; stroke-width: 0px;"/>
          <path d="M22.2,208.9c-3.4,0-3.1,4.6,0,4.6s3.3-4.6,0-4.6Z" style="fill: #e6e2d2; stroke-width: 0px;"/>
          <path d="M18.9,221.9c-3.4,0-3.1,4.6,0,4.6s3.3-4.6,0-4.6Z" style="fill: #e6e2d2; stroke-width: 0px;"/>
          <path d="M24.6,232.2c-3.4,0-3.1,4.6,0,4.6s3.3-4.6,0-4.6Z" style="fill: #e6e2d2; stroke-width: 0px;"/>
          <path d="M19.8,238.3c-3.4,0-3.1,4.6,0,4.6s3.3-4.6,0-4.6Z" style="fill: #e6e2d2; stroke-width: 0px;"/>
          <path d="M20.5,251.6c-3.4,0-3.1,4.6,0,4.6s3.3-4.6,0-4.6Z" style="fill: #e6e2d2; stroke-width: 0px;"/>
          <path d="M24.1,262c-3.4,0-3.1,4.6,0,4.6s3.3-4.6,0-4.6Z" style="fill: #e6e2d2; stroke-width: 0px;"/>
          <path d="M19.2,269c-3.4,0-3.1,4.6,0,4.6s3.3-4.6,0-4.6Z" style="fill: #e6e2d2; stroke-width: 0px;"/>
          <path d="M25.5,274.4c-3.4,0-3.1,4.6,0,4.6s3.3-4.6,0-4.6Z" style="fill: #e6e2d2; stroke-width: 0px;"/>
          <path d="M44.8,272.6c-3.4,0-3.1,4.6,0,4.6s3.3-4.6,0-4.6Z" style="fill: #e6e2d2; stroke-width: 0px;"/>
          <path d="M45.6,262.1c-3.4,0-3.1,4.6,0,4.6s3.3-4.6,0-4.6Z" style="fill: #e6e2d2; stroke-width: 0px;"/>
          <path d="M63.4,253.1c-3.4,0-3.1,4.6,0,4.6s3.3-4.6,0-4.6Z" style="fill: #e6e2d2; stroke-width: 0px;"/>
          <path d="M70.8,255.6c-3.4,0-3.1,4.6,0,4.6s3.3-4.6,0-4.6Z" style="fill: #e6e2d2; stroke-width: 0px;"/>
          <path d="M73.1,246.1c-3.4,0-3.1,4.6,0,4.6s3.3-4.6,0-4.6Z" style="fill: #e6e2d2; stroke-width: 0px;"/>
          <path d="M60.4,234.8c-3.4,0-3.1,4.6,0,4.6s3.3-4.6,0-4.6Z" style="fill: #e6e2d2; stroke-width: 0px;"/>
          <path d="M56.4,240.7c-3.4,0-3.1,4.6,0,4.6s3.3-4.6,0-4.6Z" style="fill: #e6e2d2; stroke-width: 0px;"/>
          <path d="M46.8,238.3c-3.4,0-3.1,4.6,0,4.6s3.3-4.6,0-4.6Z" style="fill: #e6e2d2; stroke-width: 0px;"/>
          <path d="M37.9,211.6c-3.4,0-3.1,4.6,0,4.6s3.3-4.6,0-4.6Z" style="fill: #e6e2d2; stroke-width: 0px;"/>
          <path d="M40.5,200.5c-3.4,0-3.1,4.6,0,4.6s3.3-4.6,0-4.6Z" style="fill: #e6e2d2; stroke-width: 0px;"/>
          <path d="M51.3,191.4c-3.4,0-3.1,4.6,0,4.6s3.3-4.6,0-4.6Z" style="fill: #e6e2d2; stroke-width: 0px;"/>
          <path d="M47.5,207.9c-3.4,0-3.1,4.6,0,4.6s3.3-4.6,0-4.6Z" style="fill: #e6e2d2; stroke-width: 0px;"/>
          <path d="M70.2,185.8c-3.4,0-3.1,4.6,0,4.6s3.3-4.6,0-4.6Z" style="fill: #e6e2d2; stroke-width: 0px;"/>
          <path d="M80.7,186.3c-3.4,0-3.1,4.6,0,4.6s3.3-4.6,0-4.6Z" style="fill: #e6e2d2; stroke-width: 0px;"/>
          <path d="M80.5,203.8c-3.4,0-3.1,4.6,0,4.6s3.3-4.6,0-4.6Z" style="fill: #e6e2d2; stroke-width: 0px;"/>
          <path d="M93.4,201.1c-3.4,0-3.1,4.6,0,4.6s3.3-4.6,0-4.6Z" style="fill: #e6e2d2; stroke-width: 0px;"/>
          <path d="M101.2,216.3c-3.4,0-3.1,4.6,0,4.6s3.3-4.6,0-4.6Z" style="fill: #e6e2d2; stroke-width: 0px;"/>
          <path d="M99.3,230.5c-3.4,0-3.1,4.6,0,4.6s3.3-4.6,0-4.6Z" style="fill: #e6e2d2; stroke-width: 0px;"/>
          <path d="M87.4,233c-3.4,0-3.1,4.6,0,4.6s3.3-4.6,0-4.6Z" style="fill: #e6e2d2; stroke-width: 0px;"/>
          <path d="M95.5,238.9c-3.4,0-3.1,4.6,0,4.6s3.3-4.6,0-4.6Z" style="fill: #e6e2d2; stroke-width: 0px;"/>
          <path d="M117.4,240.2c-3.4,0-3.1,4.6,0,4.6s3.3-4.6,0-4.6Z" style="fill: #e6e2d2; stroke-width: 0px;"/>
          <path d="M110.1,252.4c-3.4,0-3.1,4.6,0,4.6s3.3-4.6,0-4.6Z" style="fill: #e6e2d2; stroke-width: 0px;"/>
          <path d="M117.3,254c-3.4,0-3.1,4.6,0,4.6s3.3-4.6,0-4.6Z" style="fill: #e6e2d2; stroke-width: 0px;"/>
          <path d="M117.9,172.6c-3.4,0-3.1,4.6,0,4.6s3.3-4.6,0-4.6Z" style="fill: #e6e2d2; stroke-width: 0px;"/>
          <path d="M121.4,183.1c-3.4,0-3.1,4.6,0,4.6s3.3-4.6,0-4.6Z" style="fill: #e6e2d2; stroke-width: 0px;"/>
          <path d="M103.6,269.7c-3.4,0-3.1,4.6,0,4.6s3.3-4.6,0-4.6Z" style="fill: #e6e2d2; stroke-width: 0px;"/>
          <path d="M161.8,265.6c-3.4,0-3.1,4.6,0,4.6s3.3-4.6,0-4.6Z" style="fill: #e6e2d2; stroke-width: 0px;"/>
          <path d="M168.8,273.2c-3.4,0-3.1,4.6,0,4.6s3.3-4.6,0-4.6Z" style="fill: #e6e2d2; stroke-width: 0px;"/>
          <path d="M167.2,247.3c-3.4,0-3.1,4.6,0,4.6s3.3-4.6,0-4.6Z" style="fill: #e6e2d2; stroke-width: 0px;"/>
          <path d="M156,240.8c-3.4,0-3.1,4.6,0,4.6s3.3-4.6,0-4.6Z" style="fill: #e6e2d2; stroke-width: 0px;"/>
          <path d="M157,193.5c-3.4,0-3.1,4.6,0,4.6s3.3-4.6,0-4.6Z" style="fill: #e6e2d2; stroke-width: 0px;"/>
          <path d="M157.8,177.2c-3.4,0-3.1,4.6,0,4.6s3.3-4.6,0-4.6Z" style="fill: #e6e2d2; stroke-width: 0px;"/>
          <path d="M153.5,163.9c-3.4,0-3.1,4.6,0,4.6s3.3-4.6,0-4.6Z" style="fill: #e6e2d2; stroke-width: 0px;"/>
          <path d="M158.3,149.1c-3.4,0-3.1,4.6,0,4.6s3.3-4.6,0-4.6Z" style="fill: #e6e2d2; stroke-width: 0px;"/>
          <path d="M155.2,138.9c-3.4,0-3.1,4.6,0,4.6s3.3-4.6,0-4.6Z" style="fill: #e6e2d2; stroke-width: 0px;"/>
          <path d="M158.7,104.9c-3.4,0-3.1,4.6,0,4.6s3.3-4.6,0-4.6Z" style="fill: #e6e2d2; stroke-width: 0px;"/>
          <path d="M159.2,89.7c-3.4,0-3.1,4.6,0,4.6s3.3-4.6,0-4.6Z" style="fill: #e6e2d2; stroke-width: 0px;"/>
          <path d="M164.9,79.5c-3.4,0-3.1,4.6,0,4.6s3.3-4.6,0-4.6Z" style="fill: #e6e2d2; stroke-width: 0px;"/>
          <path d="M192.9,62.5c-3.4,0-3.1,4.6,0,4.6s3.3-4.6,0-4.6Z" style="fill: #e6e2d2; stroke-width: 0px;"/>
          <path d="M204.5,63c-3.4,0-3.1,4.6,0,4.6s3.3-4.6,0-4.6Z" style="fill: #e6e2d2; stroke-width: 0px;"/>
          <path d="M222.8,64.4c-3.4,0-3.1,4.6,0,4.6s3.3-4.6,0-4.6Z" style="fill: #e6e2d2; stroke-width: 0px;"/>
          <path d="M234.9,69.5c-3.4,0-3.1,4.6,0,4.6s3.3-4.6,0-4.6Z" style="fill: #e6e2d2; stroke-width: 0px;"/>
          <path d="M246,63c-3.4,0-3.1,4.6,0,4.6s3.3-4.6,0-4.6Z" style="fill: #e6e2d2; stroke-width: 0px;"/>
          <path d="M239.5,77c-3.4,0-3.1,4.6,0,4.6s3.3-4.6,0-4.6Z" style="fill: #e6e2d2; stroke-width: 0px;"/>
          <path d="M216.4,77.7c-3.4,0-3.1,4.6,0,4.6s3.3-4.6,0-4.6Z" style="fill: #e6e2d2; stroke-width: 0px;"/>
          <path d="M206.1,75.7c-3.4,0-3.1,4.6,0,4.6s3.3-4.6,0-4.6Z" style="fill: #e6e2d2; stroke-width: 0px;"/>
          <path d="M175.7,95.7c-3.4,0-3.1,4.6,0,4.6s3.3-4.6,0-4.6Z" style="fill: #e6e2d2; stroke-width: 0px;"/>
          <path d="M172.9,104.6c-3.4,0-3.1,4.6,0,4.6s3.3-4.6,0-4.6Z" style="fill: #e6e2d2; stroke-width: 0px;"/>
          <path d="M182.6,104.1c-3.4,0-3.1,4.6,0,4.6s3.3-4.6,0-4.6Z" style="fill: #e6e2d2; stroke-width: 0px;"/>
          <path d="M219.8,120.2c-3.4,0-3.1,4.6,0,4.6s3.3-4.6,0-4.6Z" style="fill: #e6e2d2; stroke-width: 0px;"/>
          <path d="M237.3,110c-3.4,0-3.1,4.6,0,4.6s3.3-4.6,0-4.6Z" style="fill: #e6e2d2; stroke-width: 0px;"/>
          <path d="M234.6,121.6c-3.4,0-3.1,4.6,0,4.6s3.3-4.6,0-4.6Z" style="fill: #e6e2d2; stroke-width: 0px;"/>
          <path d="M226.9,144c-3.4,0-3.1,4.6,0,4.6s3.3-4.6,0-4.6Z" style="fill: #e6e2d2; stroke-width: 0px;"/>
          <path d="M221.2,151.2c-3.4,0-3.1,4.6,0,4.6s3.3-4.6,0-4.6Z" style="fill: #e6e2d2; stroke-width: 0px;"/>
          <path d="M236.8,157.9c-3.4,0-3.1,4.6,0,4.6s3.3-4.6,0-4.6Z" style="fill: #e6e2d2; stroke-width: 0px;"/>
          <path d="M251.9,136.9c-3.4,0-3.1,4.6,0,4.6s3.3-4.6,0-4.6Z" style="fill: #e6e2d2; stroke-width: 0px;"/>
          <path d="M259,127.2c-3.4,0-3.1,4.6,0,4.6s3.3-4.6,0-4.6Z" style="fill: #e6e2d2; stroke-width: 0px;"/>
          <path d="M261.1,164.1c-3.4,0-3.1,4.6,0,4.6s3.3-4.6,0-4.6Z" style="fill: #e6e2d2; stroke-width: 0px;"/>
          <path d="M248.2,174.1c-3.4,0-3.1,4.6,0,4.6s3.3-4.6,0-4.6Z" style="fill: #e6e2d2; stroke-width: 0px;"/>
          <path d="M261.1,185.7c-3.4,0-3.1,4.6,0,4.6s3.3-4.6,0-4.6Z" style="fill: #e6e2d2; stroke-width: 0px;"/>
          <path d="M257.4,192.8c-3.4,0-3.1,4.6,0,4.6s3.3-4.6,0-4.6Z" style="fill: #e6e2d2; stroke-width: 0px;"/>
          <path d="M260.5,213.3c-3.4,0-3.1,4.6,0,4.6s3.3-4.6,0-4.6Z" style="fill: #e6e2d2; stroke-width: 0px;"/>
          <path d="M243.9,211.9c-3.4,0-3.1,4.6,0,4.6s3.3-4.6,0-4.6Z" style="fill: #e6e2d2; stroke-width: 0px;"/>
          <path d="M225.2,241.3c-3.4,0-3.1,4.6,0,4.6s3.3-4.6,0-4.6Z" style="fill: #e6e2d2; stroke-width: 0px;"/>
          <path d="M255.2,104.6c-3.4,0-3.1,4.6,0,4.6s3.3-4.6,0-4.6Z" style="fill: #e6e2d2; stroke-width: 0px;"/>
          <path d="M258.4,93.2c-3.4,0-3.1,4.6,0,4.6s3.3-4.6,0-4.6Z" style="fill: #e6e2d2; stroke-width: 0px;"/>
          <path d="M258.7,79.7c-3.4,0-3.1,4.6,0,4.6s3.3-4.6,0-4.6Z" style="fill: #e6e2d2; stroke-width: 0px;"/>
          <path d="M258.5,47.4c-3.4,0-3.1,4.6,0,4.6s3.3-4.6,0-4.6Z" style="fill: #e6e2d2; stroke-width: 0px;"/>
          <path d="M262.3,17.6c-3.4,0-3.1,4.6,0,4.6s3.3-4.6,0-4.6Z" style="fill: #e6e2d2; stroke-width: 0px;"/>
          <path d="M255.5,25.6c-3.4,0-3.1,4.6,0,4.6s3.3-4.6,0-4.6Z" style="fill: #e6e2d2; stroke-width: 0px;"/>
          <path d="M215.5,16.9c-3.4,0-3.1,4.6,0,4.6s3.3-4.6,0-4.6Z" style="fill: #e6e2d2; stroke-width: 0px;"/>
          <path d="M187.8,14.7c-3.4,0-3.1,4.6,0,4.6s3.3-4.6,0-4.6Z" style="fill: #e6e2d2; stroke-width: 0px;"/>
          <path d="M146.4,14.8c-3.4,0-3.1,4.6,0,4.6s3.3-4.6,0-4.6Z" style="fill: #e6e2d2; stroke-width: 0px;"/>
          <path d="M166.5,33.4c-3.4,0-3.1,4.6,0,4.6s3.3-4.6,0-4.6Z" style="fill: #e6e2d2; stroke-width: 0px;"/>
          <path d="M182.9,33c-3.4,0-3.1,4.6,0,4.6s3.3-4.6,0-4.6Z" style="fill: #e6e2d2; stroke-width: 0px;"/>
          <path d="M123.1,32.1c-3.4,0-3.1,4.6,0,4.6s3.3-4.6,0-4.6Z" style="fill: #e6e2d2; stroke-width: 0px;"/>
          <path d="M99.3,32.4c-3.4,0-3.1,4.6,0,4.6s3.3-4.6,0-4.6Z" style="fill: #e6e2d2; stroke-width: 0px;"/>
          <path d="M55.3,27c-3.4,0-3.1,4.6,0,4.6s3.3-4.6,0-4.6Z" style="fill: #e6e2d2; stroke-width: 0px;"/>
          <path d="M20.3,33.6c-3.4,0-3.1,4.6,0,4.6s3.3-4.6,0-4.6Z" style="fill: #e6e2d2; stroke-width: 0px;"/>
          <path d="M20.6,45.4c-3.4,0-3.1,4.6,0,4.6s3.3-4.6,0-4.6Z" style="fill: #e6e2d2; stroke-width: 0px;"/>
          <path d="M191.5,21.4c-3.4,0-3.1,4.6,0,4.6s3.3-4.6,0-4.6Z" style="fill: #e6e2d2; stroke-width: 0px;"/>
          <path d="M212,137.4c-3.4,0-3.1,4.6,0,4.6s3.3-4.6,0-4.6Z" style="fill: #e6e2d2; stroke-width: 0px;"/>
          <path d="M203.4,146.1c-3.4,0-3.1,4.6,0,4.6s3.3-4.6,0-4.6Z" style="fill: #e6e2d2; stroke-width: 0px;"/>
          <path d="M176.7,143.2c-3.4,0-3.1,4.6,0,4.6s3.3-4.6,0-4.6Z" style="fill: #e6e2d2; stroke-width: 0px;"/>
          <path d="M182.3,160.1c-3.4,0-3.1,4.6,0,4.6s3.3-4.6,0-4.6Z" style="fill: #e6e2d2; stroke-width: 0px;"/>
          <path d="M178.3,169.8c-3.4,0-3.1,4.6,0,4.6s3.3-4.6,0-4.6Z" style="fill: #e6e2d2; stroke-width: 0px;"/>
          <path d="M172.4,181.9c-3.4,0-3.1,4.6,0,4.6s3.3-4.6,0-4.6Z" style="fill: #e6e2d2; stroke-width: 0px;"/>
          <path d="M203.7,190.1c-3.4,0-3.1,4.6,0,4.6s3.3-4.6,0-4.6Z" style="fill: #e6e2d2; stroke-width: 0px;"/>
          <path d="M192.3,194.6c-3.4,0-3.1,4.6,0,4.6s3.3-4.6,0-4.6Z" style="fill: #e6e2d2; stroke-width: 0px;"/>
          <path d="M185.6,203c-3.4,0-3.1,4.6,0,4.6s3.3-4.6,0-4.6Z" style="fill: #e6e2d2; stroke-width: 0px;"/>
          <path d="M206.9,217.5c-3.4,0-3.1,4.6,0,4.6s3.3-4.6,0-4.6Z" style="fill: #e6e2d2; stroke-width: 0px;"/>
          <path d="M227.2,190.1c-3.4,0-3.1,4.6,0,4.6s3.3-4.6,0-4.6Z" style="fill: #e6e2d2; stroke-width: 0px;"/>
          <path d="M179.4,224.9c-3.4,0-3.1,4.6,0,4.6s3.3-4.6,0-4.6Z" style="fill: #e6e2d2; stroke-width: 0px;"/>
          <path d="M182.6,238c-3.4,0-3.1,4.6,0,4.6s3.3-4.6,0-4.6Z" style="fill: #e6e2d2; stroke-width: 0px;"/>
          <path d="M195,237.8c-3.4,0-3.1,4.6,0,4.6s3.3-4.6,0-4.6Z" style="fill: #e6e2d2; stroke-width: 0px;"/>
          <path d="M186.7,244.8c-3.4,0-3.1,4.6,0,4.6s3.3-4.6,0-4.6Z" style="fill: #e6e2d2; stroke-width: 0px;"/>
          <path d="M218.8,256.2c-3.4,0-3.1,4.6,0,4.6s3.3-4.6,0-4.6Z" style="fill: #e6e2d2; stroke-width: 0px;"/>
          <path d="M227.4,263.4c-3.4,0-3.1,4.6,0,4.6s3.3-4.6,0-4.6Z" style="fill: #e6e2d2; stroke-width: 0px;"/>
          <path d="M234.2,258c-3.4,0-3.1,4.6,0,4.6s3.3-4.6,0-4.6Z" style="fill: #e6e2d2; stroke-width: 0px;"/>
          <path d="M198.6,261.8c-3.4,0-3.1,4.6,0,4.6s3.3-4.6,0-4.6Z" style="fill: #e6e2d2; stroke-width: 0px;"/>
          <path d="M253.9,240.2c-3.4,0-3.1,4.6,0,4.6s3.3-4.6,0-4.6Z" style="fill: #e6e2d2; stroke-width: 0px;"/>
          <path d="M260.9,234.1c-3.4,0-3.1,4.6,0,4.6s3.3-4.6,0-4.6Z" style="fill: #e6e2d2; stroke-width: 0px;"/>
          <path d="M263.5,248.6c-3.4,0-3.1,4.6,0,4.6s3.3-4.6,0-4.6Z" style="fill: #e6e2d2; stroke-width: 0px;"/>
          <path d="M250.8,268.6c-3.4,0-3.1,4.6,0,4.6s3.3-4.6,0-4.6Z" style="fill: #e6e2d2; stroke-width: 0px;"/>
          <path d="M260.6,265.1c-3.4,0-3.1,4.6,0,4.6s3.3-4.6,0-4.6Z" style="fill: #e6e2d2; stroke-width: 0px;"/>
        </g>
      </g>
      <g class="letter">
        <path class="text" d="M256.9,33.4c-2.5.3-5,1.1-7.6,1-8.5.6-16.6,3.4-25.2,3.9-13.7,1.3-27.5,1.1-41.3,1.6-19.8-.4-39.6.5-59.4-.3-15.9-1.5-31.8,0-47.7-.7-6.6-.3-9.6-2.1-14-4.2-1.5-.6-5.3.7-5.5.9-7.4,7.7-26.3,24.5-30,28.1-1.7,1.7.7,4.4,1.6,4,9-2.8,19.9-5.7,29.1-7.7,14-2.1,28-4.3,42.3-4.3,9.6-1.2,19.1-.7,28.7,0,2.5,10.2,3.4,20.8,4.7,31.2-.3,10.6.4,21.1,1.3,31.7-.9,20.3,1.1,40.3-.6,60.7-.1,19.9-.5,39.9-1.5,59.8-1.9,10.2,0,27.6-6.9,34.7-2.3,2.3-3.4,2.4-3.4,4.8.2,1.9.3,2.2,2,2.4,2.3.3,27.2.4,36.2,0,1.5.4,2.2-4.1.8-5-2-1.1-4.9-4.6-6.1-7.2-8.3-14-3.4-46.6-5.1-64.2.9-14.1-1.5-28.1-.3-42.1.9-16.4.1-32.9,2.7-49.2.5-19.2,2.5-38.3,5.2-57.3,12.6-1.1,25.2-1.2,37.8-2,8.6.6,17.2,0,25.7.8,6.7,1.2,13.1,3.3,19.5,5.4,4.1,1.2,7.5-8.1,9.7-11,2.8-4.1,5.5-8.1,7.9-12.5,1.5-.8,1.2-3.4-.7-3.5Z" style="fill: #ca0; stroke-width: 0px;"/>
        <g class="highlight">
          <path d="M235.5,62.7c-8.5-1.9-17-4-25.7-4.9-15.5-1.2-31.2,0-46.6,2.1-2.3,0-3.4,2.8-.6,2.9,17.2-3,35-2.8,52.4-1.2,7.7.1,15.1,2.1,22.6,3.4.9.4,2.3-.4,1.4-1.3-1-.6-2.4-.7-3.5-1Z" style="fill: #606060; stroke-width: 0px;"/>
          <path d="M127.7,239.7c1.4-22.7,1.6-45.4,2.3-68.1-1.1-13.1,0-26.2.1-39.3-.5-12,.2-24,0-36.1-1.1-11.8-1.9-23.8-4.7-35.4.5-2.7-8.4-2-10.2-2.1-8.6-.5-17.2,0-25.9.8-9.3,0-18.3,2.5-27.5,3.1-12.8,1.2-25.2,5.2-37.2,9.7-1.2-2.7-3.4-5.2-4.3-8,6.8-6.2,14.5-11.6,20.4-18.7,3.1-3.8,7.5-6.9,10.1-11,.3-2.4-2.4.6-2.9,1.3-9.2,8.8-19.5,16.5-28.7,25.3-3.6,2.5-.9,6.8,1,9.6.7,1.1,2.3,4.5,2.8,4.7,1.2,2.1,10.4-2.6,13.1-2.8,9.9-1.7,19.5-5,29.4-6.8,11.9-1.9,23.9-2.3,35.8-3.6,7.2-.6,14.7-.7,22,.8.2,8.8.3,16.1,1.9,24.8.1,8.1.5,16.1,1.3,24.1-.4,23.2-.9,46.4-.8,69.7-.8,15.1.4,30.1-1.4,45.1-1.1,14-.7,41.2-11.5,50.7-2,1.5-2,3.4.2,3,1.3-.3,5.3-3,7.2-6.6,6.9-10.7,6.4-21.7,7.6-34.1Z" style="fill: #606060; stroke-width: 0px;"/>
        </g>
      </g>
    </g>
  </g>
</svg>